<?xml version="1.0" encoding="utf-8"?>
<!-- Generator: Adobe Illustrator 23.0.2, SVG Export Plug-In . SVG Version: 6.00 Build 0)  -->
<svg version="1.1" id="Layer_1" xmlns="http://www.w3.org/2000/svg" xmlns:xlink="http://www.w3.org/1999/xlink" x="0px" y="0px"
	 viewBox="0 0 1920 1080" style="enable-background:new 0 0 1920 1080;" xml:space="preserve">
<style type="text/css">
	.st0{enable-background:new    ;}
	.st1{fill:#AEAFB1;}
	.st2{fill:#9A9A9C;}
	.st3{fill:#797A7B;}
	.st4{clip-path:url(#SVGID_3_);enable-background:new    ;}
	.st5{fill:#959697;}
	.st6{fill:#919193;}
	.st7{fill:#8C8D8E;}
	.st8{fill:#888889;}
	.st9{fill:#838485;}
	.st10{clip-path:url(#SVGID_5_);enable-background:new    ;}
	.st11{fill:#767677;}
	.st12{fill:#C3C4C5;}
	.st13{clip-path:url(#SVGID_7_);enable-background:new    ;}
	.st14{fill:#517494;}
	.st15{fill:#547899;}
	.st16{fill:#577C9E;}
	.st17{fill:#5A80A3;}
	.st18{fill:#5C84A8;}
	.st19{fill:#5F88AD;}
	.st20{fill:#628CB3;}
	.st21{fill:#6590B8;}
	.st22{clip-path:url(#SVGID_9_);enable-background:new    ;}
	.st23{fill:#496885;}
	.st24{fill:#6C9AC5;}
	.st25{fill:#4B6B89;}
	.st26{clip-path:url(#SVGID_11_);enable-background:new    ;}
	.st27{fill:#4E708F;}
	.st28{fill:#4C6C8A;}
	.st29{fill:#79ACDC;}
	.st30{clip-path:url(#SVGID_13_);enable-background:new    ;}
	.st31{fill:#7A7B7C;}
	.st32{fill:#7F7F80;}
	.st33{fill:#9E9FA0;}
	.st34{fill:#A3A3A5;}
	.st35{clip-path:url(#SVGID_15_);enable-background:new    ;}
	.st36{fill:none;}
	.st37{clip-path:url(#SVGID_17_);fill:#797A7B;}
	.st38{clip-path:url(#SVGID_19_);fill:#797A7B;}
	.st39{clip-path:url(#SVGID_21_);enable-background:new    ;}
	.st40{clip-path:url(#SVGID_23_);enable-background:new    ;}
	.st41{clip-path:url(#SVGID_25_);enable-background:new    ;}
	.st42{clip-path:url(#SVGID_27_);enable-background:new    ;}
	.st43{clip-path:url(#SVGID_29_);enable-background:new    ;}
	.st44{clip-path:url(#SVGID_31_);enable-background:new    ;}
	.st45{clip-path:url(#SVGID_33_);enable-background:new    ;}
	.st46{clip-path:url(#SVGID_35_);enable-background:new    ;}
	.st47{clip-path:url(#SVGID_37_);enable-background:new    ;}
	.st48{clip-path:url(#SVGID_39_);enable-background:new    ;}
	.st49{clip-path:url(#SVGID_41_);enable-background:new    ;}
	.st50{clip-path:url(#SVGID_43_);enable-background:new    ;}
	.st51{clip-path:url(#SVGID_45_);enable-background:new    ;}
	.st52{clip-path:url(#SVGID_47_);enable-background:new    ;}
	.st53{clip-path:url(#SVGID_49_);enable-background:new    ;}
	.st54{clip-path:url(#SVGID_51_);enable-background:new    ;}
	.st55{clip-path:url(#SVGID_53_);enable-background:new    ;}
	.st56{clip-path:url(#SVGID_55_);enable-background:new    ;}
	.st57{clip-path:url(#SVGID_57_);enable-background:new    ;}
	.st58{clip-path:url(#SVGID_59_);enable-background:new    ;}
	.st59{clip-path:url(#SVGID_61_);enable-background:new    ;}
	.st60{clip-path:url(#SVGID_63_);enable-background:new    ;}
	.st61{clip-path:url(#SVGID_65_);enable-background:new    ;}
	.st62{clip-path:url(#SVGID_67_);enable-background:new    ;}
	.st63{clip-path:url(#SVGID_69_);enable-background:new    ;}
	.st64{clip-path:url(#SVGID_71_);enable-background:new    ;}
	.st65{clip-path:url(#SVGID_73_);enable-background:new    ;}
	.st66{clip-path:url(#SVGID_75_);enable-background:new    ;}
	.st67{clip-path:url(#SVGID_77_);enable-background:new    ;}
	.st68{clip-path:url(#SVGID_79_);enable-background:new    ;}
	.st69{clip-path:url(#SVGID_81_);enable-background:new    ;}
	.st70{clip-path:url(#SVGID_83_);enable-background:new    ;}
	.st71{clip-path:url(#SVGID_85_);enable-background:new    ;}
	.st72{fill:none;stroke:#000000;stroke-width:0.25;stroke-miterlimit:10;}
</style>
<g>
	<g class="st0">
		<g class="st0">
			<g>
				<polygon id="SVGID_1_" class="st1" points="730.9,230.5 907.1,128.1 907,168.9 730.8,271.3 				"/>
			</g>
		</g>
		<g class="st0">
			<g class="st0">
				<path class="st2" d="M907.1,128.1l-0.1,40.8c17.8-10.3,46.8-10.3,64.6,0l0.1-40.8C953.9,117.8,924.9,117.8,907.1,128.1z"/>
			</g>
		</g>
		<g class="st0">
			<polygon class="st3" points="971.7,128.1 1111.9,209 1111.7,249.8 971.6,168.9 			"/>
		</g>
	</g>
</g>
<g class="st0">
	<g>
		<g>
			<defs>
				<path id="SVGID_2_" d="M726.1,282.7l0.1-40.8c0-3.9,1.6-7.8,4.6-11.4l-0.1,40.8C727.7,274.8,726.1,278.8,726.1,282.7z"/>
			</defs>
			<clipPath id="SVGID_3_">
				<use xlink:href="#SVGID_2_"  style="overflow:visible;"/>
			</clipPath>
			<g class="st4">
				<path class="st2" d="M730.8,230.5l-0.1,40.8c-0.2,0.2-0.4,0.5-0.6,0.7l0.1-40.8C730.4,231,730.6,230.7,730.8,230.5"/>
				<path class="st5" d="M730.2,231.2l-0.1,40.8c-0.7,0.9-1.3,1.8-1.8,2.7l0.1-40.8C728.9,233,729.6,232.1,730.2,231.2"/>
				<path class="st6" d="M728.4,233.9l-0.1,40.8c-0.5,0.8-0.9,1.7-1.2,2.6l0.1-40.8C727.6,235.6,728,234.7,728.4,233.9"/>
				<path class="st7" d="M727.2,236.5l-0.1,40.8c-0.3,0.8-0.6,1.7-0.7,2.5l0.1-40.8C726.7,238.1,726.9,237.3,727.2,236.5"/>
				<path class="st8" d="M726.2,241.6l0,0.6l0.1-0.1l-0.1,0.1l-0.1,40.2c0-0.9,0.1-1.8,0.3-2.6l0.1-40.8
					C726.3,239.8,726.2,240.7,726.2,241.6z"/>
				<path class="st9" d="M726.2,241.9c0-0.1,0-0.2,0-0.4l0,0.7l0,0L726.2,241.9z"/>
				<path class="st9" d="M726.1,282.7l0.1-40.5l0,0l-0.1,40.1C726.1,282.4,726.1,282.6,726.1,282.7z"/>
			</g>
		</g>
	</g>
</g>
<g class="st0">
	<g>
		<g>
			<defs>
				<path id="SVGID_4_" d="M1124.9,227.3l-0.1,40.8c0-6.6-4.3-13.2-13-18.3l0.1-40.8C1120.6,214,1124.9,220.7,1124.9,227.3z"/>
			</defs>
			<clipPath id="SVGID_5_">
				<use xlink:href="#SVGID_4_"  style="overflow:visible;"/>
			</clipPath>
			<g class="st10">
				<path class="st11" d="M1124.9,227.3l-0.1,40.8c0-6.6-4.3-13.2-13-18.3l0.1-40.8C1120.6,214,1124.9,220.7,1124.9,227.3"/>
			</g>
		</g>
	</g>
</g>
<path class="st12" d="M1111.8,209c8.6,5,12.9,11.5,13.1,18l6.2-6.9L1111.8,209z"/>
<path class="st12" d="M730.8,230.5l-42.7,24.9c8.2-2.4,17.5-3.2,26.4-2.4l11.7-10.8C726.1,238.2,727.7,234.2,730.8,230.5z"/>
<g id="area1">
	<g class="st0">
		<g class="st0">
			<g>
				<g>
					<defs>
						<path id="SVGID_6_" d="M1124.8,227.4l-0.1,40.8c0,6.6-4.3,13.2-13,18.2l0.1-40.8C1120.5,240.5,1124.8,234,1124.8,227.4z"/>
					</defs>
					<clipPath id="SVGID_7_">
						<use xlink:href="#SVGID_6_"  style="overflow:visible;"/>
					</clipPath>
					<g class="st13">
						<path class="st14" d="M1124.8,227.4l-0.1,40.8c0,0.1,0,0.3,0,0.4l0.1-40.8C1124.8,227.7,1124.8,227.5,1124.8,227.4"/>
						<path class="st15" d="M1124.8,227.8l-0.1,40.8c0,0.9-0.1,1.7-0.3,2.6l0.1-40.8C1124.7,229.5,1124.8,228.6,1124.8,227.8"/>
						<path class="st16" d="M1124.5,230.3l-0.1,40.8c-0.2,0.8-0.4,1.7-0.7,2.5l0.1-40.8C1124.1,232,1124.3,231.2,1124.5,230.3"/>
						<path class="st17" d="M1123.8,232.9l-0.1,40.8c-0.3,0.9-0.7,1.7-1.2,2.5l0.1-40.8C1123.1,234.6,1123.5,233.7,1123.8,232.9"/>
						<path class="st18" d="M1122.6,235.4l-0.1,40.8c-0.5,0.9-1.1,1.8-1.8,2.7l0.1-40.8C1121.5,237.2,1122.1,236.3,1122.6,235.4"/>
						<path class="st19" d="M1120.8,238.1l-0.1,40.8c-0.8,1-1.7,2-2.8,3l0.1-40.8C1119.1,240.1,1120,239.1,1120.8,238.1"/>
						<path class="st20" d="M1118,241.1l-0.1,40.8c-1.6,1.5-3.5,2.9-5.7,4.2l0.1-40.8C1114.5,243.9,1116.4,242.5,1118,241.1"/>
						<path class="st21" d="M1112.4,245.2l-0.1,40.8c-0.2,0.1-0.4,0.2-0.5,0.3l0.1-40.8C1112,245.5,1112.2,245.4,1112.4,245.2"/>
					</g>
				</g>
			</g>
		</g>
		<g class="st0">
			<g>
				<g>
					<defs>
						<path id="SVGID_8_" d="M726.1,282.8l0.1-40.8c0,6.6,4.3,13.2,13.1,18.3l-0.1,40.8C730.4,296,726.1,289.4,726.1,282.8z"/>
					</defs>
					<clipPath id="SVGID_9_">
						<use xlink:href="#SVGID_8_"  style="overflow:visible;"/>
					</clipPath>
					<g class="st22">
						<path class="st23" d="M726.2,242.2L726.2,242.2l-0.1,40.6c0,6.6,4.3,13.2,13.1,18.3l0.1-40.8
							C730.6,255.2,726.3,248.7,726.2,242.2z"/>
						<path class="st23" d="M726.2,242l0,0.2l0,0C726.2,242.1,726.2,242.1,726.2,242z"/>
					</g>
				</g>
			</g>
		</g>
		<g>
			<polygon class="st24" points="1111.8,245.6 1111.7,286.3 944.8,383.3 944.9,342.6 			"/>
		</g>
		<g>
			<polygon class="st25" points="882,342.6 881.9,383.4 739.2,301 739.3,260.3 			"/>
		</g>
		<g class="st0">
			<g>
				<g>
					<defs>
						<path id="SVGID_10_" d="M944.9,342.6l-0.1,40.8c-17.3,10.1-45.6,10.1-62.9,0.1l0.1-40.8C899.4,352.7,927.6,352.6,944.9,342.6z
							"/>
					</defs>
					<clipPath id="SVGID_11_">
						<use xlink:href="#SVGID_10_"  style="overflow:visible;"/>
					</clipPath>
					<g class="st26">
						<path class="st21" d="M944.9,342.6l-0.1,40.8c-3,1.7-6.3,3.2-9.8,4.3l0.1-40.8C938.6,345.7,941.9,344.3,944.9,342.6"/>
						<path class="st20" d="M926.6,349l0,10.6l6,3.8l-6-3.8l-0.1,30.2c2.9-0.5,5.8-1.2,8.5-2.1l0.1-40.8
							C932.4,347.7,929.6,348.4,926.6,349z"/>
						<path class="st19" d="M926.7,349c-1.9,0.3-3.8,0.6-5.7,0.8l0,6.3l5.7,3.6L926.7,349z"/>
						<path class="st19" d="M921,356.1l-0.1,34.5c1.9-0.2,3.8-0.5,5.7-0.8l0.1-30.1L921,356.1z"/>
						<path class="st18" d="M921,349.8c-1.7,0.1-3.3,0.2-4.9,0.3l0,2.9l4.9,3.1L921,349.8z"/>
						<path class="st18" d="M916.1,353l-0.1,37.9c1.6,0,3.3-0.1,4.9-0.3l0.1-34.5L916.1,353z"/>
						<path class="st17" d="M916,350.1c-1.4,0-2.9,0.1-4.4,0l4.4,2.8L916,350.1z"/>
						<path class="st17" d="M911.6,350.1c-0.1,0-0.1,0-0.2,0l-0.1,40.8c1.6,0.1,3.1,0.1,4.6,0l0.1-38L911.6,350.1z"/>
						<path class="st16" d="M906.9,390.7c1.5,0.1,2.9,0.2,4.4,0.2l0.1-40.8c-1.4,0-2.9-0.1-4.4-0.2L906.9,390.7z"/>
						<path class="st15" d="M907,349.9l-0.1,40.8c-1.5-0.1-2.9-0.3-4.3-0.5l0.1-40.8C904.2,349.6,905.6,349.8,907,349.9"/>
						<path class="st14" d="M898.3,348.6l0,4.1l2.9-3.5C900.2,349,899.3,348.8,898.3,348.6z"/>
						<path class="st14" d="M901.2,349.1l-2.9,3.5l-0.1,36.7c1.4,0.3,2.9,0.6,4.4,0.8l0.1-40.8C902.2,349.3,901.7,349.2,901.2,349.1
							z"/>
						<path class="st27" d="M894.4,357.4l3.9-4.7l0-4.1c-1.5-0.3-3.1-0.7-4.6-1.1l-0.1,40.8c1.5,0.4,3,0.8,4.6,1.1l0.1-36.7
							L894.4,357.4z"/>
						<path class="st28" d="M893.7,347.5l-0.1,40.8c-1.8-0.5-3.6-1.1-5.4-1.8l0.1-40.8C890.1,346.4,891.9,347,893.7,347.5"/>
						<path class="st23" d="M888.3,345.7l-0.1,40.8c-2.2-0.9-4.4-1.9-6.4-3l0.1-40.8C884,343.8,886.1,344.8,888.3,345.7"/>
					</g>
				</g>
			</g>
		</g>
		<g>
			<path class="st29" d="M1111.8,209.1l-140.2-80.9c-17.8-10.3-46.8-10.3-64.6,0L730.9,230.6c-3.1,3.6-4.6,7.5-4.6,11.5l0,0l0,0
				c0,6.6,4.3,13.2,13.1,18.2l142.7,82.4c5.5,3.2,12.1,5.3,19,6.5l0.1-0.2l-0.1,0.2c3.4,0.6,7,0.9,10.5,1l-3.3-2.1l3.3,2.1
				c12,0.3,24.2-2.2,33.4-7.6l166.9-97c6.7-3.9,10.8-8.7,12.3-13.8l0,0l0,0c0,0,0,0,0,0l-0.1,0.1l0.1-0.1
				C1126.6,223.8,1122.5,215.2,1111.8,209.1z"/>
		</g>
	</g>
</g>
<g class="st0">
	<g class="st0">
		<g>
			<g>
				<defs>
					<path id="SVGID_12_" d="M1175,245.5l-0.1,40.8c-17.5-10.1-45.7-10.1-63.1,0l0.1-40.8C1129.3,235.4,1157.5,235.4,1175,245.5z"/>
				</defs>
				<clipPath id="SVGID_13_">
					<use xlink:href="#SVGID_12_"  style="overflow:visible;"/>
				</clipPath>
				<g class="st30">
					<path class="st11" d="M1175,245.5l-0.1,40.8c-2-1.2-4.2-2.2-6.4-3.1l0.1-40.8C1170.8,243.3,1173,244.3,1175,245.5"/>
					<path class="st31" d="M1168.6,242.4l-0.1,40.8c-1.7-0.7-3.6-1.3-5.4-1.8l0.1-40.8C1165,241.1,1166.8,241.7,1168.6,242.4"/>
					<path class="st32" d="M1163.2,240.6l-0.1,40.8c-1.5-0.4-3.1-0.8-4.7-1.1l0.1-40.8C1160.1,239.7,1161.7,240.1,1163.2,240.6"/>
					<path class="st9" d="M1158.5,239.4l-0.1,40.8c-1.5-0.3-2.9-0.6-4.4-0.8l0.1-40.8C1155.6,238.9,1157.1,239.1,1158.5,239.4"/>
					<path class="st8" d="M1154.1,238.7l-0.1,40.8c-1.4-0.2-2.9-0.4-4.3-0.5l0.1-40.8C1151.2,238.3,1152.7,238.4,1154.1,238.7"/>
					<path class="st7" d="M1149.8,238.2l-0.1,40.8c-1.5-0.1-2.9-0.2-4.4-0.2l0.1-40.8C1146.8,238,1148.3,238,1149.8,238.2"/>
					<path class="st6" d="M1145.4,237.9l-0.1,40.8c-1.5,0-3.1,0-4.6,0l0.1-40.8C1142.3,237.9,1143.8,237.9,1145.4,237.9"/>
					<path class="st5" d="M1140.8,238l-0.1,40.8c-1.7,0.1-3.3,0.2-5,0.3l0.1-40.8C1137.5,238.1,1139.1,238,1140.8,238"/>
					<path class="st2" d="M1135.8,238.3l-0.1,40.8c-1.9,0.2-3.8,0.5-5.7,0.8l0.1-40.8C1132,238.7,1133.9,238.5,1135.8,238.3"/>
					<path class="st33" d="M1130.1,239.1l-0.1,40.8c-2.9,0.5-5.7,1.2-8.4,2.1l0.1-40.8C1124.4,240.3,1127.2,239.6,1130.1,239.1"/>
					<path class="st34" d="M1121.7,241.2l-0.1,40.8c-3.5,1.1-6.8,2.6-9.7,4.3l0.1-40.8C1114.9,243.7,1118.2,242.3,1121.7,241.2"/>
				</g>
			</g>
		</g>
	</g>
	<g>
		<path class="st12" d="M1131,220.1l-6.2,6.9c0.1,6.7-4.2,13.4-13,18.5c17.4-10.1,45.6-10.1,63.1,0L1131,220.1z"/>
	</g>
</g>
<g>
	<g class="st0">
		<g class="st0">
			<g>
				<defs>
					<path id="SVGID_14_" d="M1627.6,558.7c0-6.8-4.5-13.7-13.5-18.9l0.1-40.8c9,5.2,13.5,12,13.5,18.9
						C1627.7,530.1,1627.6,546.4,1627.6,558.7z"/>
				</defs>
				<clipPath id="SVGID_15_">
					<use xlink:href="#SVGID_14_"  style="overflow:visible;"/>
				</clipPath>
				<g class="st35">
					<path class="st36" d="M1614.2,499l-0.1,40.8c17.9,10.3,18,27.2,0.1,37.5l0.1-40.8C1632.3,526.2,1632.1,509.3,1614.2,499z"/>
					<line class="st36" x1="1626.2" y1="511" x2="1626.1" y2="551.8"/>
				</g>
			</g>
			<g>
				<defs>
					<path id="SVGID_16_" d="M1627.6,558.7c0-6.8-4.5-13.7-13.5-18.9l0.1-40.8c9,5.2,13.5,12,13.5,18.9
						C1627.7,530.1,1627.6,546.4,1627.6,558.7z"/>
				</defs>
				<clipPath id="SVGID_17_">
					<use xlink:href="#SVGID_16_"  style="overflow:visible;"/>
				</clipPath>
				<path class="st37" d="M1627.6,558.7c0-6.8-4.5-13.7-13.5-18.9l0.1-40.8c9,5.2,13.5,12,13.5,18.9
					C1627.7,530.1,1627.6,546.4,1627.6,558.7z"/>
			</g>
		</g>
		<g class="st0">
			<g>
				<defs>
					<polygon id="SVGID_18_" points="1175.1,245.5 1614.2,499 1614.1,539.8 1175,286.3 					"/>
				</defs>
				<clipPath id="SVGID_19_">
					<use xlink:href="#SVGID_18_"  style="overflow:visible;"/>
				</clipPath>
				<polygon class="st38" points="1175.1,245.5 1614.2,499 1614.1,539.8 1175,286.3 				"/>
			</g>
		</g>
	</g>
</g>
<g class="st0">
	<g class="st0">
		<g>
			<g>
				<defs>
					<path id="SVGID_20_" d="M739.4,260.1l-0.1,40.8c-13.9-8-34.6-9.6-51.2-4.8l0.1-40.8C704.7,250.5,725.5,252.1,739.4,260.1z"/>
				</defs>
				<clipPath id="SVGID_21_">
					<use xlink:href="#SVGID_20_"  style="overflow:visible;"/>
				</clipPath>
				<g class="st39">
					<path class="st11" d="M739.4,260.1l-0.1,40.8c-2-1.2-4.2-2.2-6.4-3.1L733,257C735.2,257.9,737.3,259,739.4,260.1"/>
					<path class="st31" d="M732.9,257l-0.1,40.8c-1.7-0.7-3.5-1.3-5.3-1.8l0.1-40.8C729.4,255.8,731.2,256.4,732.9,257"/>
					<path class="st32" d="M727.6,255.2l-0.1,40.8c-1.5-0.4-3.1-0.8-4.6-1.1l0.1-40.8C724.5,254.4,726.1,254.8,727.6,255.2"/>
					<path class="st9" d="M722.9,254.1l-0.1,40.8c-1.4-0.3-2.9-0.6-4.4-0.8l0.1-40.8C720,253.6,721.5,253.8,722.9,254.1"/>
					<path class="st8" d="M714.5,253l0.2-0.2c-0.2,0-0.3,0-0.5-0.1l-0.1,40.8c1.4,0.1,2.9,0.3,4.3,0.5l0.1-40.8
						c-1.2-0.2-2.5-0.3-3.8-0.4L714.5,253z"/>
					<path class="st7" d="M714.2,252.9l-0.1,40.8c-1.4-0.1-2.9-0.2-4.4-0.2l0.1-40.8C711.3,252.7,712.8,252.7,714.2,252.9"/>
					<path class="st6" d="M709.9,252.6l-0.1,40.8c-1.5,0-3,0-4.6,0l0.1-40.8C706.8,252.6,708.3,252.6,709.9,252.6"/>
					<path class="st5" d="M705.3,252.6l-0.1,40.8c-1.6,0.1-3.3,0.2-4.9,0.3l0.1-40.8C702,252.8,703.7,252.7,705.3,252.6"/>
					<path class="st2" d="M700.4,253l-0.1,40.8c-1.9,0.2-3.8,0.5-5.7,0.8l0.1-40.8C696.6,253.4,698.5,253.2,700.4,253"/>
					<path class="st33" d="M694.7,253.8l-0.1,40.8c-2.2,0.4-4.4,0.9-6.5,1.5l0.1-40.8C690.3,254.7,692.4,254.2,694.7,253.8"/>
				</g>
			</g>
		</g>
	</g>
	<g>
		<path class="st12" d="M739,260c-8.5-4.9-12.7-11.4-12.8-17.8L714.5,253c9.1,0.8,17.8,3.2,24.8,7.2L739,260z"/>
	</g>
</g>
<g>
	<polygon class="st3" points="882.1,342.6 882,383.4 739.3,301 739.4,260.3 	"/>
</g>
<polyline class="st1" points="688.1,296.1 267.3,540.7 267.4,499.9 688.2,255.4 "/>
<path class="st1" d="M254.1,518.5c0-6.7,4.5-13.5,13.3-18.6l-0.1,40.8c-8.8,5.1-13.3,11.9-13.3,18.6
	C254.1,547,254.1,530.7,254.1,518.5z"/>
<g class="st0">
	<g>
		<g>
			<defs>
				<path id="SVGID_22_" d="M895.2,360.8l-0.1,40.8c0-6.6-4.3-13.3-13.1-18.3l0.1-40.8C890.8,347.6,895.2,354.2,895.2,360.8z"/>
			</defs>
			<clipPath id="SVGID_23_">
				<use xlink:href="#SVGID_22_"  style="overflow:visible;"/>
			</clipPath>
			<g class="st40">
				<path class="st11" d="M894.4,357.4l0.3-0.4c-1.3-5.3-5.6-10.4-12.6-14.6l-0.1,40.8c8.8,5,13.1,11.7,13.1,18.3l0.1-40.8
					c0-1.2-0.2-2.5-0.5-3.7L894.4,357.4z"/>
			</g>
		</g>
	</g>
</g>
<g class="st0">
	<g>
		<g>
			<defs>
				<path id="SVGID_24_" d="M931.9,401.4l0.1-40.8c0-6.6,4.4-13.2,13-18.2l-0.1,40.8C936.2,388.3,931.9,394.9,931.9,401.4z"/>
			</defs>
			<clipPath id="SVGID_25_">
				<use xlink:href="#SVGID_24_"  style="overflow:visible;"/>
			</clipPath>
			<g class="st41">
				<path class="st34" d="M945,342.5l-0.1,40.8c-0.2,0.1-0.4,0.2-0.5,0.3l0.1-40.8C944.7,342.7,944.8,342.6,945,342.5"/>
				<path class="st33" d="M944.5,342.8l-0.1,40.8c-2.2,1.3-4.1,2.7-5.7,4.2l0.1-40.8C940.4,345.5,942.3,344.1,944.5,342.8"/>
				<path class="st2" d="M938.8,347l-0.1,40.8c-1,1-2,2-2.8,3L936,350C936.8,349,937.7,348,938.8,347"/>
				<path class="st5" d="M936,350l-0.1,40.8c-0.7,0.9-1.3,1.8-1.8,2.7l0.1-40.8C934.7,351.8,935.3,350.9,936,350"/>
				<path class="st6" d="M934.2,352.7l-0.1,40.8c-0.5,0.8-0.9,1.7-1.2,2.5l0.1-40.8C933.3,354.4,933.7,353.5,934.2,352.7"/>
				<path class="st7" d="M932.3,357.7l0,5.5l0.2,0.2l-0.2-0.2l-0.1,35.3c0.1-0.8,0.4-1.7,0.7-2.5l0.1-40.8
					C932.7,356,932.5,356.9,932.3,357.7z"/>
				<path class="st8" d="M932.3,357.7c-0.2,0.9-0.3,1.7-0.3,2.6l0,2.8l0.3,0.2L932.3,357.7z"/>
				<path class="st8" d="M932,363.1l-0.1,38c0-0.9,0.1-1.7,0.3-2.6l0.1-35.3L932,363.1z"/>
				<path class="st9" d="M932,360.7c0-0.2,0-0.3,0-0.4l0,2.8l0,0L932,360.7z"/>
				<path class="st9" d="M931.9,401.5l0.1-38.4l0,0l-0.1,38C931.9,401.2,931.9,401.4,931.9,401.5z"/>
			</g>
		</g>
	</g>
</g>
<path class="st12" d="M882,342.5c7.1,4.1,11.3,9.3,12.7,14.7l6.6-8.1C894.2,347.9,887.6,345.7,882,342.5z"/>
<g id="area2">
	<g class="st0">
		<g class="st0">
			<g>
				<g>
					<defs>
						<path id="SVGID_26_" d="M895.2,360.8l-0.1,40.8c0,6.5-4.3,13.1-12.9,18.1l0.1-40.8C890.9,373.9,895.2,367.4,895.2,360.8z"/>
					</defs>
					<clipPath id="SVGID_27_">
						<use xlink:href="#SVGID_26_"  style="overflow:visible;"/>
					</clipPath>
					<g class="st42">
						<path class="st14" d="M895.2,360.8l-0.1,40.8c0,0.1,0,0.3,0,0.4l0.1-40.8C895.2,361.1,895.2,361,895.2,360.8"/>
						<path class="st15" d="M895.2,361.2l-0.1,40.8c0,0.9-0.1,1.7-0.3,2.6l0.1-40.8C895.1,362.9,895.2,362.1,895.2,361.2"/>
						<path class="st16" d="M894.9,363.8l-0.1,40.8c-0.2,0.8-0.4,1.7-0.7,2.5l0.1-40.8C894.5,365.5,894.7,364.6,894.9,363.8"/>
						<path class="st17" d="M894.2,366.3l-0.1,40.8c-0.3,0.9-0.7,1.7-1.2,2.5l0.1-40.8C893.5,368,893.9,367.1,894.2,366.3"/>
						<path class="st18" d="M893,368.8l-0.1,40.8c-0.5,0.9-1.1,1.8-1.8,2.7l0.1-40.8C891.9,370.6,892.5,369.7,893,368.8"/>
						<path class="st19" d="M891.2,371.5l-0.1,40.8c-0.8,1-1.7,2-2.8,3l0.1-40.8C889.5,373.5,890.4,372.5,891.2,371.5"/>
						<path class="st20" d="M888.4,374.4l-0.1,40.8c-1.6,1.5-3.5,2.9-5.6,4.2l0.1-40.8C885,377.3,886.9,375.9,888.4,374.4"/>
						<path class="st21" d="M882.8,378.6l-0.1,40.8c-0.2,0.1-0.4,0.2-0.5,0.3l0.1-40.8C882.5,378.8,882.7,378.7,882.8,378.6"/>
					</g>
				</g>
			</g>
		</g>
		<g>
			<polygon class="st24" points="882.3,378.9 882.2,419.7 634,563.9 634.1,523.2 			"/>
		</g>
		<g class="st0">
			<g>
				<g>
					<defs>
						<path id="SVGID_28_" d="M254,559.2l0.1-40.8c0,6.8,4.5,13.6,13.5,18.8l-0.1,40.8C258.5,572.8,254,566,254,559.2z"/>
					</defs>
					<clipPath id="SVGID_29_">
						<use xlink:href="#SVGID_28_"  style="overflow:visible;"/>
					</clipPath>
					<g class="st43">
						<path class="st23" d="M267.6,537.3l-0.1,40.8c-9-5.2-13.5-12-13.5-18.8l0.1-40.8C254.1,525.2,258.6,532,267.6,537.3"/>
					</g>
				</g>
			</g>
		</g>
		<g>
			<polygon class="st24" points="634.1,523.2 634,563.9 571,600.5 571.1,559.7 			"/>
		</g>
		<g>
			<polygon class="st24" points="571.1,559.7 571,600.5 470.4,658.9 470.6,618.2 			"/>
		</g>
		<g>
			<polygon class="st25" points="407.7,618.1 407.6,658.9 267.5,578 267.6,537.3 			"/>
		</g>
		<g class="st0">
			<g>
				<g>
					<defs>
						<path id="SVGID_30_" d="M470.6,618.2l-0.1,40.8c-17.3,10-45.4,10-62.9,0l0.1-40.8C425.1,628.2,453.3,628.2,470.6,618.2z"/>
					</defs>
					<clipPath id="SVGID_31_">
						<use xlink:href="#SVGID_30_"  style="overflow:visible;"/>
					</clipPath>
					<g class="st44">
						<path class="st21" d="M470.6,618.2l-0.1,40.8c-3,1.7-6.2,3.1-9.7,4.3l0.1-40.8C464.3,621.3,467.6,619.9,470.6,618.2"/>
						<path class="st20" d="M452.5,624.6l0,0.4l5.2,7.7l-5.2-7.7l-0.1,40.4c2.9-0.5,5.7-1.2,8.4-2.1l0.1-40.8
							C458.2,623.3,455.3,624,452.5,624.6z"/>
						<path class="st19" d="M452.5,624.5c-0.1,0-0.2,0-0.3,0.1l0.3,0.4L452.5,624.5z"/>
						<path class="st19" d="M452.2,624.6c-1.8,0.4-3.6,0.6-5.4,0.7l-0.1,40.8c1.9-0.2,3.8-0.5,5.7-0.8l0.1-40.3L452.2,624.6z"/>
						<path class="st18" d="M446.8,625.3l-0.1,40.8c-1.6,0.2-3.3,0.3-4.9,0.3l0.1-40.8C443.5,625.6,445.2,625.5,446.8,625.3"/>
						<path class="st17" d="M441.9,625.7l-0.1,40.8c-1.5,0.1-3,0.1-4.6,0l0.1-40.8C438.8,625.7,440.4,625.7,441.9,625.7"/>
						<path class="st16" d="M437.3,625.7l-0.1,40.8c-1.5,0-2.9-0.1-4.4-0.2l0.1-40.8C434.4,625.6,435.8,625.6,437.3,625.7"/>
						<path class="st15" d="M432.9,625.4l-0.1,40.8c-1.5-0.1-2.9-0.3-4.3-0.5l0.1-40.8C430,625.2,431.5,625.3,432.9,625.4"/>
						<path class="st14" d="M428.6,625l-0.1,40.8c-1.5-0.2-3-0.5-4.4-0.8l0.1-40.8C425.6,624.5,427.1,624.8,428.6,625"/>
						<path class="st27" d="M424.2,624.2l-0.1,40.8c-1.6-0.3-3.1-0.7-4.6-1.1l0.1-40.8C421.1,623.5,422.6,623.9,424.2,624.2"/>
						<path class="st28" d="M419.5,623.1l-0.1,40.8c-1.9-0.5-3.7-1.1-5.4-1.8l0.1-40.8C415.9,621.9,417.7,622.5,419.5,623.1"/>
						<path class="st23" d="M414.1,621.2L414,662c-2.3-0.9-4.4-1.9-6.4-3.1l0.1-40.8C409.7,619.3,411.9,620.3,414.1,621.2"/>
					</g>
				</g>
			</g>
		</g>
		<g>
			<path class="st29" d="M894.7,357.1l-0.2,0.3L894.7,357.1c-1.3-5.4-5.5-10.5-12.7-14.6l-142.7-82.3c-7-4-15.7-6.4-24.8-7.2l0,0
				l0,0c-8.9-0.8-18.2,0-26.4,2.4L267.3,499.9c-17.8,10.3-17.7,27,0.2,37.4l140.1,80.9c12.1,6.9,29.4,9.1,44.6,6.4l-0.1-0.2l0.1,0.2
				c6.7-1.2,13-3.3,18.3-6.4l100.6-58.4l62.9-36.6l248.2-144.3C892.4,372.9,896.5,364.8,894.7,357.1z"/>
		</g>
	</g>
</g>
<path class="st12" d="M945,342.5c-9.2,5.3-21.5,7.8-33.6,7.5l20.8,13.2C931,355.8,935.3,348.2,945,342.5z"/>
<g id="area3">
	<g class="st0">
		<g class="st0">
			<g>
				<g>
					<defs>
						<path id="SVGID_32_" d="M931.8,401.6l0.1-40.8c0,6.6,4.3,13.2,13.1,18.3l-0.1,40.8C936.1,414.9,931.8,408.2,931.8,401.6z"/>
					</defs>
					<clipPath id="SVGID_33_">
						<use xlink:href="#SVGID_32_"  style="overflow:visible;"/>
					</clipPath>
					<g class="st45">
						<path class="st23" d="M931.9,360.8l0,2.7l0.1,0.1l-0.1-0.1l-0.1,38.1c0,6.6,4.4,13.3,13.1,18.3l0.1-40.8
							C936.3,374.1,931.9,367.5,931.9,360.8z"/>
					</g>
				</g>
			</g>
		</g>
		<g class="st0">
			<g>
				<g>
					<defs>
						<path id="SVGID_34_" d="M1627.6,518.1l-0.1,40.8c0,6.7-4.5,13.5-13.3,18.6l0.1-40.8C1623.1,531.5,1627.6,524.8,1627.6,518.1z"
							/>
					</defs>
					<clipPath id="SVGID_35_">
						<use xlink:href="#SVGID_34_"  style="overflow:visible;"/>
					</clipPath>
					<g class="st46">
						<path class="st16" d="M1627.3,521.1l-0.1,40.8c-0.2,0.9-0.4,1.7-0.7,2.6l0.1-40.8C1626.9,522.8,1627.1,521.9,1627.3,521.1"/>
						<path class="st17" d="M1626.5,523.7l-0.1,40.8c-0.3,0.9-0.7,1.7-1.2,2.6l0.1-40.8C1625.8,525.4,1626.2,524.5,1626.5,523.7"/>
						<path class="st18" d="M1625.3,526.3l-0.1,40.8c-0.5,0.9-1.1,1.8-1.8,2.7l0.1-40.8C1624.2,528.1,1624.8,527.2,1625.3,526.3"/>
						<path class="st19" d="M1623.5,529l-0.1,40.8c-0.8,1-1.8,2.1-2.8,3l0.1-40.8C1621.7,531,1622.7,530,1623.5,529"/>
						<path class="st20" d="M1620.7,532l-0.1,40.8c-1.6,1.5-3.6,2.9-5.8,4.3l0.1-40.8C1617.1,534.9,1619,533.5,1620.7,532"/>
						<path class="st21" d="M1614.9,536.3l-0.1,40.8c-0.2,0.1-0.4,0.3-0.7,0.4l0.1-40.8C1614.5,536.5,1614.7,536.4,1614.9,536.3"/>
					</g>
				</g>
			</g>
		</g>
		<g>
			<polygon class="st25" points="1218.9,537.3 1218.8,578 944.9,419.9 945,379.1 			"/>
		</g>
		<g>
			<polygon class="st25" points="1282,573.7 1281.9,614.5 1218.8,578 1218.9,537.3 			"/>
		</g>
		<g>
			<polygon class="st25" points="1385.8,633.6 1385.6,674.4 1281.9,614.5 1282,573.7 			"/>
		</g>
		<g>
			<polygon class="st24" points="1614.2,536.7 1614.1,577.4 1441.3,677.9 1441.4,637.1 			"/>
		</g>
		<g class="st0">
			<g>
				<g>
					<defs>
						<path id="SVGID_36_" d="M1441.4,637.1l-0.1,40.8c-17.2,6.4-40.5,5.3-55.7-3.5l0.1-40.8
							C1400.9,642.4,1424.2,643.5,1441.4,637.1z"/>
					</defs>
					<clipPath id="SVGID_37_">
						<use xlink:href="#SVGID_36_"  style="overflow:visible;"/>
					</clipPath>
					<g class="st47">
						<path class="st21" d="M1441.4,637.1l-0.1,40.8c-0.8,0.3-1.6,0.6-2.4,0.8l0.1-40.8C1439.8,637.7,1440.6,637.4,1441.4,637.1"/>
						<path class="st20" d="M1439,637.9l-0.1,40.8c-2.7,0.9-5.5,1.5-8.3,2.1l0.1-40.8C1433.5,639.5,1436.3,638.8,1439,637.9"/>
						<path class="st19" d="M1430.7,640l-0.1,40.8c-1.9,0.3-3.8,0.6-5.7,0.8l0.1-40.8C1426.9,640.6,1428.8,640.3,1430.7,640"/>
						<path class="st18" d="M1424.9,640.8l-0.1,40.8c-1.6,0.2-3.3,0.3-5,0.3l0.1-40.8C1421.6,641.1,1423.3,641,1424.9,640.8"/>
						<path class="st17" d="M1420,641.1l-0.1,40.8c-1.5,0.1-3.1,0.1-4.6,0l0.1-40.8C1416.9,641.2,1418.5,641.2,1420,641.1"/>
						<path class="st16" d="M1415.4,641.1l-0.1,40.8c-1.5,0-2.9-0.1-4.4-0.2l0.1-40.8C1412.4,641,1413.9,641.1,1415.4,641.1"/>
						<path class="st15" d="M1411,640.9l-0.1,40.8c-1.5-0.1-2.9-0.3-4.3-0.5l0.1-40.8C1408.1,640.6,1409.5,640.8,1411,640.9"/>
						<path class="st14" d="M1402.8,639.7l-0.6,1.2l-0.1,39.4c1.4,0.3,2.9,0.6,4.4,0.8l0.1-40.8
							C1405.4,640.2,1404.1,640,1402.8,639.7z"/>
						<path class="st14" d="M1402.2,639.6l0,1.4l0.6-1.2C1402.6,639.6,1402.4,639.6,1402.2,639.6z"/>
						<path class="st27" d="M1397.7,650.3l4.5-9.4l0-1.3c-1.6-0.4-3.1-0.8-4.7-1.1l-0.1,40.8c1.6,0.4,3.1,0.8,4.7,1.1l0.1-39.5
							L1397.7,650.3z"/>
						<path class="st28" d="M1397.6,638.5l-0.1,40.8c-1.8-0.5-3.6-1.1-5.4-1.8l0.1-40.8C1393.9,637.4,1395.7,638,1397.6,638.5"/>
						<path class="st23" d="M1392.2,636.7l-0.1,40.8c-2.3-0.9-4.4-1.9-6.4-3.1l0.1-40.8C1387.8,634.8,1389.9,635.8,1392.2,636.7"/>
					</g>
				</g>
			</g>
		</g>
		<g>
			<path class="st29" d="M1614.1,499.2L1175,245.7c-17.5-10.1-45.8-10.1-63.1,0l-167,97c-17.3,10-17.3,26.3,0.1,36.4l273.8,158.2
				l63.1,36.4l103.8,59.9c5,2.9,10.9,4.9,17.1,6.2l0.4-0.9l-0.4,0.9c12.8,2.5,27.1,1.6,38.6-2.7l172.8-100.4
				C1632.1,526.4,1632,509.5,1614.1,499.2z"/>
		</g>
	</g>
</g>
<g class="st0">
	<g class="st0">
		<g>
			<g>
				<defs>
					<path id="SVGID_38_" d="M945.1,378.9l-0.1,40.8c-17.4-10-45.5-10-62.8,0l0.1-40.8C899.6,368.9,927.7,368.9,945.1,378.9z"/>
				</defs>
				<clipPath id="SVGID_39_">
					<use xlink:href="#SVGID_38_"  style="overflow:visible;"/>
				</clipPath>
				<g class="st48">
					<path class="st11" d="M945.1,378.9l-0.1,40.8c-2-1.2-4.1-2.2-6.4-3.1l0.1-40.8C940.9,376.7,943.1,377.8,945.1,378.9"/>
					<path class="st31" d="M938.7,375.8l-0.1,40.8c-1.7-0.7-3.5-1.3-5.4-1.8l0.1-40.8C935.2,374.5,937,375.2,938.7,375.8"/>
					<path class="st32" d="M933.3,374l-0.1,40.8c-1.5-0.4-3.1-0.8-4.6-1.1l0.1-40.8C930.2,373.2,931.8,373.6,933.3,374"/>
					<path class="st9" d="M928.7,372.9l-0.1,40.8c-1.4-0.3-2.9-0.6-4.4-0.8l0.1-40.8C925.8,372.3,927.2,372.6,928.7,372.9"/>
					<path class="st8" d="M924.3,372.1l-0.1,40.8c-1.4-0.2-2.9-0.4-4.3-0.5l0.1-40.8C921.4,371.8,922.8,371.9,924.3,372.1"/>
					<path class="st7" d="M920,371.6l-0.1,40.8c-1.5-0.1-2.9-0.2-4.4-0.2l0.1-40.8C917,371.4,918.5,371.5,920,371.6"/>
					<path class="st6" d="M915.6,371.4l-0.1,40.8c-1.5,0-3,0-4.6,0l0.1-40.8C912.5,371.4,914.1,371.4,915.6,371.4"/>
					<path class="st5" d="M911,371.4l-0.1,40.8c-1.7,0.1-3.3,0.2-4.9,0.3l0.1-40.8C907.7,371.6,909.4,371.5,911,371.4"/>
					<path class="st2" d="M906.1,371.8l-0.1,40.8c-1.9,0.2-3.8,0.5-5.7,0.8l0.1-40.8C902.3,372.2,904.2,371.9,906.1,371.8"/>
					<path class="st33" d="M900.4,372.5l-0.1,40.8c-2.9,0.5-5.7,1.2-8.4,2.1l0.1-40.8C894.7,373.8,897.5,373.1,900.4,372.5"/>
					<path class="st34" d="M892,374.6l-0.1,40.8c-3.5,1.1-6.8,2.6-9.7,4.3l0.1-40.8C885.3,377.2,888.5,375.8,892,374.6"/>
				</g>
			</g>
		</g>
	</g>
	<g>
		<path class="st12" d="M944.8,378.8l0.2,0.1c-0.1-0.1-0.2-0.1-0.4-0.2C944.7,378.7,944.7,378.8,944.8,378.8z"/>
		<path class="st12" d="M932.2,363.2L911.4,350c-3.4-0.1-6.8-0.4-10.2-0.9l-6.6,8.1c1.9,7.7-2.2,15.8-12.5,21.7
			c17.2-9.9,45-10,62.4-0.2C937.2,374.4,933,368.9,932.2,363.2z"/>
	</g>
</g>
<g class="st0">
	<g class="st0">
		<g>
			<g>
				<defs>
					<path id="SVGID_40_" d="M1232.1,555.4l-0.1,40.8c0-6.6-4.4-13.3-13.2-18.4l0.1-40.8C1227.8,542.1,1232.2,548.8,1232.1,555.4z"
						/>
				</defs>
				<clipPath id="SVGID_41_">
					<use xlink:href="#SVGID_40_"  style="overflow:visible;"/>
				</clipPath>
				<g class="st49">
					<path class="st11" d="M1232.1,555.4l-0.1,40.8c0-6.6-4.4-13.3-13.2-18.4l0.1-40.8C1227.8,542.1,1232.2,548.8,1232.1,555.4"/>
				</g>
			</g>
		</g>
	</g>
	<g class="st0">
		<g>
			<g>
				<defs>
					<path id="SVGID_42_" d="M1282.1,573.5l-0.1,40.8c-17.4-10-45.5-10-62.8,0l0.1-40.8C1236.5,563.4,1264.7,563.4,1282.1,573.5z"/>
				</defs>
				<clipPath id="SVGID_43_">
					<use xlink:href="#SVGID_42_"  style="overflow:visible;"/>
				</clipPath>
				<g class="st50">
					<path class="st11" d="M1282.1,573.5l-0.1,40.8c-2-1.2-4.1-2.2-6.4-3.1l0.1-40.8C1277.9,571.3,1280.1,572.3,1282.1,573.5"/>
					<path class="st31" d="M1275.7,570.4l-0.1,40.8c-1.7-0.7-3.5-1.3-5.4-1.8l0.1-40.8C1272.1,569.1,1273.9,569.7,1275.7,570.4"/>
					<path class="st32" d="M1270.3,568.6l-0.1,40.8c-1.5-0.4-3.1-0.8-4.6-1.1l0.1-40.8C1267.2,567.8,1268.8,568.1,1270.3,568.6"/>
					<path class="st9" d="M1265.6,567.4l-0.1,40.8c-1.4-0.3-2.9-0.6-4.4-0.8l0.1-40.8C1262.7,566.9,1264.2,567.1,1265.6,567.4"/>
					<path class="st8" d="M1261.2,566.7l-0.1,40.8c-1.4-0.2-2.9-0.4-4.3-0.5l0.1-40.8C1258.4,566.3,1259.8,566.5,1261.2,566.7"/>
					<path class="st7" d="M1256.9,566.2l-0.1,40.8c-1.5-0.1-2.9-0.2-4.4-0.2l0.1-40.8C1254,566,1255.5,566.1,1256.9,566.2"/>
					<path class="st6" d="M1252.5,566l-0.1,40.8c-1.5,0-3,0-4.6,0l0.1-40.8C1249.5,565.9,1251,565.9,1252.5,566"/>
					<path class="st5" d="M1248,566l-0.1,40.8c-1.7,0.1-3.3,0.2-4.9,0.3l0.1-40.8C1244.7,566.1,1246.3,566,1248,566"/>
					<path class="st2" d="M1243.1,566.3l-0.1,40.8c-1.9,0.2-3.8,0.5-5.7,0.8l0.1-40.8C1239.2,566.8,1241.1,566.5,1243.1,566.3"/>
					<path class="st33" d="M1237.4,567.1l-0.1,40.8c-2.9,0.5-5.7,1.2-8.4,2.1l0.1-40.8C1231.7,568.3,1234.5,567.6,1237.4,567.1"/>
					<path class="st34" d="M1229,569.2l-0.1,40.8c-3.5,1.1-6.8,2.6-9.7,4.3l0.1-40.8C1222.2,571.7,1225.5,570.3,1229,569.2"/>
				</g>
			</g>
		</g>
	</g>
</g>
<g class="st0">
	<g class="st0">
		<g>
			<g>
				<defs>
					<path id="SVGID_44_" d="M1398.3,651.4l-0.1,40.8c0-6.7-4.4-13.5-13.4-18.6l0.1-40.8C1393.8,638,1398.3,644.7,1398.3,651.4z"/>
				</defs>
				<clipPath id="SVGID_45_">
					<use xlink:href="#SVGID_44_"  style="overflow:visible;"/>
				</clipPath>
				<g class="st51">
					<path class="st11" d="M1398.2,650.2l0.1-0.2c-0.6-6.2-5-12.4-13.3-17.2l-0.1,40.8c9,5.1,13.4,11.9,13.4,18.6l0.1-40.8
						c0-0.5,0-0.9-0.1-1.4L1398.2,650.2z"/>
				</g>
			</g>
		</g>
	</g>
</g>
<g class="st0">
	<g>
		<polygon class="st1" points="470.6,618.2 470.4,658.9 469.7,659.3 469.9,618.6 		"/>
	</g>
	<g class="st0">
		<g>
			<g>
				<defs>
					<path id="SVGID_46_" d="M456.5,677.7l0.1-40.8c0-6.6,4.4-13.3,13.2-18.4l-0.1,40.8C461,664.4,456.6,671.1,456.5,677.7z"/>
				</defs>
				<clipPath id="SVGID_47_">
					<use xlink:href="#SVGID_46_"  style="overflow:visible;"/>
				</clipPath>
				<g class="st52">
					<path class="st34" d="M469.9,618.6l-0.1,40.8c-0.2,0.1-0.4,0.2-0.6,0.3l0.1-40.8C469.5,618.8,469.7,618.7,469.9,618.6"/>
					<path class="st33" d="M469.3,618.9l-0.1,40.8c-2.2,1.3-4.1,2.8-5.8,4.3l0.1-40.8C465.1,621.7,467.1,620.3,469.3,618.9"/>
					<path class="st2" d="M463.5,623.2l-0.1,40.8c-1.1,1-2,2-2.8,3l0.1-40.8C461.5,625.2,462.5,624.2,463.5,623.2"/>
					<path class="st5" d="M460.7,626.2l-0.1,40.8c-0.7,0.9-1.3,1.8-1.8,2.7l0.1-40.8C459.4,628,460,627.1,460.7,626.2"/>
					<path class="st6" d="M457.7,631.5l-0.1,40.8c0.3-0.9,0.7-1.8,1.2-2.6l0.1-40.8C458.4,629.8,458,630.6,457.7,631.5z"/>
					<path class="st7" d="M457.4,632.3l0.3,0.4L457.4,632.3c-0.2,0.6-0.3,1.2-0.4,1.7l-0.1,40.8c0.1-0.8,0.4-1.7,0.7-2.5l0.1-40.8
						C457.6,631.8,457.5,632,457.4,632.3z"/>
					<path class="st8" d="M457,634l-0.1,40.8c-0.2,0.9-0.3,1.7-0.3,2.6l0.1-40.8C456.7,635.7,456.8,634.9,457,634"/>
					<path class="st9" d="M456.7,636.6l-0.1,40.8c0,0.1,0,0.3,0,0.4l0.1-40.8C456.7,636.8,456.7,636.7,456.7,636.6"/>
				</g>
			</g>
		</g>
	</g>
</g>
<g class="st0">
	<g>
		<g>
			<defs>
				<path id="SVGID_48_" d="M621,582l0.1-40.8c0-6.6,4.3-13.1,13-18.1l-0.1,40.8C625.3,568.9,621,575.5,621,582z"/>
			</defs>
			<clipPath id="SVGID_49_">
				<use xlink:href="#SVGID_48_"  style="overflow:visible;"/>
			</clipPath>
			<g class="st53">
				<path class="st34" d="M634.1,523.2L634,564c-0.2,0.1-0.4,0.2-0.5,0.3l0.1-40.8C633.7,523.4,633.9,523.3,634.1,523.2"/>
				<path class="st33" d="M633.5,523.5l-0.1,40.8c-2.2,1.3-4.1,2.7-5.7,4.2l0.1-40.8C629.5,526.2,631.4,524.8,633.5,523.5"/>
				<path class="st2" d="M627.9,527.7l-0.1,40.8c-1,1-2,2-2.8,3l0.1-40.8C625.9,529.6,626.8,528.6,627.9,527.7"/>
				<path class="st5" d="M625.1,530.7l-0.1,40.8c-0.7,0.9-1.3,1.8-1.8,2.7l0.1-40.8C623.8,532.4,624.4,531.5,625.1,530.7"/>
				<path class="st6" d="M623.3,533.3l-0.1,40.8c-0.5,0.8-0.9,1.7-1.2,2.5l0.1-40.8C622.4,535,622.8,534.2,623.3,533.3"/>
				<path class="st7" d="M622.1,535.9l-0.1,40.8c-0.3,0.8-0.6,1.7-0.7,2.5l0.1-40.8C621.6,537.5,621.8,536.7,622.1,535.9"/>
				<path class="st8" d="M621.4,538.4l-0.1,40.8c-0.2,0.8-0.3,1.7-0.3,2.5l0.1-40.8C621.1,540.1,621.2,539.2,621.4,538.4"/>
				<path class="st9" d="M621.1,540.9l-0.1,40.8c0,0.1,0,0.3,0,0.4l0.1-40.8C621.1,541.2,621.1,541,621.1,540.9"/>
			</g>
		</g>
	</g>
</g>
<g class="st0">
	<g class="st0">
		<g class="st0">
			<g>
				<g>
					<defs>
						<path id="SVGID_50_" d="M621,581.9l0.1-40.8c0,6.6,4.3,13.2,13.1,18.3l-0.1,40.8C625.3,595.2,621,588.5,621,581.9z"/>
					</defs>
					<clipPath id="SVGID_51_">
						<use xlink:href="#SVGID_50_"  style="overflow:visible;"/>
					</clipPath>
					<g class="st54">
						<path class="st11" d="M634.2,559.5l-0.1,40.8c-8.8-5.1-13.2-11.7-13.1-18.3l0.1-40.8C621.1,547.8,625.4,554.4,634.2,559.5"/>
					</g>
				</g>
			</g>
		</g>
		<g class="st0">
			<g>
				<g>
					<defs>
						<path id="SVGID_52_" d="M1232,555.4l-0.1,40.8c0,6.5-4.3,13.1-12.9,18.1l0.1-40.8C1227.7,568.4,1232,561.9,1232,555.4z"/>
					</defs>
					<clipPath id="SVGID_53_">
						<use xlink:href="#SVGID_52_"  style="overflow:visible;"/>
					</clipPath>
					<g class="st55">
						<path class="st9" d="M1232,555.4l-0.1,40.8c0,0.1,0,0.3,0,0.4l0.1-40.8C1232,555.6,1232,555.5,1232,555.4"/>
						<path class="st8" d="M1232,555.7l-0.1,40.8c0,0.9-0.1,1.7-0.3,2.6l0.1-40.8C1231.8,557.4,1231.9,556.6,1232,555.7"/>
						<path class="st7" d="M1231.7,558.3l-0.1,40.8c-0.2,0.8-0.4,1.7-0.7,2.5l0.1-40.8C1231.3,560,1231.5,559.1,1231.7,558.3"/>
						<path class="st6" d="M1231,560.8l-0.1,40.8c-0.3,0.9-0.7,1.7-1.2,2.5l0.1-40.8C1230.2,562.5,1230.6,561.6,1231,560.8"/>
						<path class="st5" d="M1229.8,563.3l-0.1,40.8c-0.5,0.9-1.1,1.8-1.8,2.7l0.1-40.8C1228.7,565.1,1229.3,564.2,1229.8,563.3"/>
						<path class="st2" d="M1228,566l-0.1,40.8c-0.8,1-1.7,2-2.8,3l0.1-40.8C1226.3,568,1227.2,567,1228,566"/>
						<path class="st33" d="M1225.2,568.9l-0.1,40.8c-1.6,1.5-3.5,2.9-5.6,4.2l0.1-40.8C1221.8,571.8,1223.6,570.4,1225.2,568.9"/>
						<path class="st34" d="M1219.6,573.1l-0.1,40.8c-0.2,0.1-0.4,0.2-0.5,0.3l0.1-40.8C1219.3,573.3,1219.4,573.2,1219.6,573.1"/>
					</g>
				</g>
			</g>
		</g>
		<g>
			<polygon class="st1" points="1219.1,573.4 1219,614.2 970.8,758.4 970.9,717.6 			"/>
		</g>
		<g>
			<polygon class="st3" points="908.1,717.6 908,758.4 634.1,600.2 634.2,559.5 			"/>
		</g>
		<g class="st0">
			<g>
				<g>
					<defs>
						<path id="SVGID_54_" d="M970.9,717.6l-0.1,40.8c-17.3,10-45.4,10-62.8,0l0.1-40.8C925.5,727.7,953.7,727.7,970.9,717.6z"/>
					</defs>
					<clipPath id="SVGID_55_">
						<use xlink:href="#SVGID_54_"  style="overflow:visible;"/>
					</clipPath>
					<g class="st56">
						<path class="st34" d="M970.9,717.6l-0.1,40.8c-3,1.7-6.2,3.1-9.7,4.3l0.1-40.8C964.7,720.8,968,719.3,970.9,717.6"/>
						<path class="st33" d="M952.8,724l0,2.2l5.8,8.7l-5.8-8.7l-0.1,38.6c2.9-0.5,5.7-1.2,8.4-2.1l0.1-40.8
							C958.5,722.8,955.7,723.5,952.8,724z"/>
						<path class="st2" d="M951.4,724.2c-1.4,0.2-2.8,0.4-4.3,0.6l-0.1,40.8c1.9-0.2,3.8-0.5,5.7-0.8l0.1-38.6L951.4,724.2z"/>
						<path class="st2" d="M952.8,724c-0.5,0.1-0.9,0.1-1.4,0.2l1.3,2L952.8,724z"/>
						<path class="st5" d="M947.1,724.8l-0.1,40.8c-1.6,0.2-3.3,0.3-4.9,0.3l0.1-40.8C943.9,725,945.5,724.9,947.1,724.8"/>
						<path class="st6" d="M942.2,725.1l-0.1,40.8c-1.5,0.1-3,0.1-4.6,0l0.1-40.8C939.2,725.2,940.7,725.2,942.2,725.1"/>
						<path class="st7" d="M937.7,725.1l-0.1,40.8c-1.5,0-2.9-0.1-4.4-0.2l0.1-40.8C934.7,725,936.2,725.1,937.7,725.1"/>
						<path class="st8" d="M929,724.4l-0.1,40.8c1.4,0.2,2.8,0.4,4.3,0.5l0.1-40.8C931.8,724.8,930.4,724.6,929,724.4z"/>
						<path class="st9" d="M924.6,723.6l0,4.7l2.9-4.1C926.5,724,925.5,723.8,924.6,723.6z"/>
						<path class="st9" d="M927.5,724.2l-2.9,4.1l-0.1,36.1c1.4,0.3,2.9,0.6,4.4,0.8l0.1-40.8C928.5,724.3,928,724.2,927.5,724.2z"
							/>
						<path class="st32" d="M920.5,734.1l4.1-5.8l0-4.7c-1.6-0.3-3.2-0.7-4.6-1.1l-0.1,40.8c1.5,0.4,3,0.8,4.6,1.1l0.1-36.1
							L920.5,734.1z"/>
						<path class="st31" d="M919.9,722.5l-0.1,40.8c-1.9-0.5-3.7-1.1-5.4-1.8l0.1-40.8C916.3,721.4,918.1,722,919.9,722.5"/>
						<path class="st11" d="M914.5,720.7l-0.1,40.8c-2.3-0.9-4.4-1.9-6.4-3.1l0.1-40.8C910.1,718.8,912.3,719.8,914.5,720.7"/>
					</g>
				</g>
			</g>
		</g>
		<g>
			<path class="st12" d="M1218.9,537L945,378.9c-17.4-10-45.5-10-62.8,0L634,523.1c-17.3,10.1-17.3,26.3,0.2,36.4l273.9,158.1
				c5.6,3.2,12.3,5.4,19.4,6.5l1.4-2l-1.4,2c7.8,1.3,16.1,1.3,23.9,0l-0.9-1.4l0.9,1.4c7.1-1.1,13.9-3.3,19.5-6.6l248.2-144.2
				C1236.4,563.3,1236.3,547,1218.9,537z"/>
		</g>
	</g>
</g>
<g class="st0">
	<g class="st0">
		<g>
			<g>
				<defs>
					<path id="SVGID_56_" d="M634.3,559.5l-0.1,40.8c-17.4-10-45.7-10-63.1,0.2l0.1-40.8C588.6,549.6,616.9,549.5,634.3,559.5z"/>
				</defs>
				<clipPath id="SVGID_57_">
					<use xlink:href="#SVGID_56_"  style="overflow:visible;"/>
				</clipPath>
				<g class="st57">
					<path class="st11" d="M634.3,559.5l-0.1,40.8c-2-1.1-4.1-2.2-6.3-3l0.1-40.8C630.2,557.4,632.3,558.4,634.3,559.5"/>
					<path class="st31" d="M627.9,556.5l-0.1,40.8c-1.7-0.7-3.5-1.3-5.3-1.8l0.1-40.8C624.4,555.2,626.2,555.8,627.9,556.5"/>
					<path class="st32" d="M622.6,554.7l-0.1,40.8c-1.5-0.4-3-0.8-4.6-1.1l0.1-40.8C619.6,553.9,621.1,554.3,622.6,554.7"/>
					<path class="st9" d="M618,553.6l-0.1,40.8c-1.4-0.3-2.9-0.6-4.4-0.8l0.1-40.8C615.1,553,616.6,553.3,618,553.6"/>
					<path class="st8" d="M613.6,552.8l-0.1,40.8c-1.4-0.2-2.9-0.4-4.3-0.5l0.1-40.8C610.7,552.4,612.2,552.6,613.6,552.8"/>
					<path class="st7" d="M609.3,552.3l-0.1,40.8c-1.5-0.1-2.9-0.2-4.4-0.2l0.1-40.8C606.4,552.1,607.8,552.2,609.3,552.3"/>
					<path class="st6" d="M604.9,552.1l-0.1,40.8c-1.5,0-3.1,0-4.6,0l0.1-40.8C601.9,552.1,603.4,552,604.9,552.1"/>
					<path class="st5" d="M600.3,552.1l-0.1,40.8c-1.7,0.1-3.3,0.2-5,0.3l0.1-40.8C597,552.3,598.7,552.2,600.3,552.1"/>
					<path class="st2" d="M595.4,552.4l-0.1,40.8c-1.9,0.2-3.9,0.5-5.8,0.8l0.1-40.8C591.5,552.9,593.4,552.6,595.4,552.4"/>
					<path class="st33" d="M589.6,553.2l-0.1,40.8c-2.9,0.5-5.8,1.2-8.5,2.1l0.1-40.8C583.8,554.5,586.7,553.8,589.6,553.2"/>
					<path class="st34" d="M581.1,555.4l-0.1,40.8c-3.6,1.2-6.9,2.6-9.9,4.4l0.1-40.8C574.2,558,577.5,556.5,581.1,555.4"/>
				</g>
			</g>
		</g>
	</g>
	<g>
		<path class="st12" d="M634.1,523.2c-17.3,10-17.3,26.3-0.1,36.2l0.3,0.2c-17.4-10-45.7-10-63.1,0.2L634.1,523.2z"/>
	</g>
</g>
<g>
	<path class="st12" d="M1282.1,573.5c-17.4-10-45.5-10-62.8,0c17.3-10,17.2-26.3-0.3-36.4L1282.1,573.5z"/>
</g>
<g class="st0">
	<g>
		<g>
			<defs>
				<path id="SVGID_58_" d="M921.2,735.9l-0.1,40.8c0-6.6-4.3-13.2-13-18.2l0.1-40.8C916.9,722.7,921.3,729.3,921.2,735.9z"/>
			</defs>
			<clipPath id="SVGID_59_">
				<use xlink:href="#SVGID_58_"  style="overflow:visible;"/>
			</clipPath>
			<g class="st58">
				<path class="st11" d="M920.5,734.1l0.6-0.8c-0.9-5.7-5.2-11.3-12.8-15.6l-0.1,40.8c8.7,5,13,11.6,13,18.2l0.1-40.8
					c0-0.9-0.1-1.7-0.2-2.6L920.5,734.1z"/>
			</g>
		</g>
	</g>
</g>
<path class="st12" d="M908.2,717.7c7.5,4.4,11.8,9.9,12.8,15.6l6.5-9.1C920.4,723.1,913.8,720.9,908.2,717.7z"/>
<path class="st12" d="M452.2,624.6l5.2,7.8c1.6-5,5.7-9.8,12.5-13.7l0.7-0.4C465.3,621.3,458.9,623.4,452.2,624.6z"/>
<g id="area4">
	<g class="st0">
		<g class="st0">
			<g>
				<g>
					<defs>
						<path id="SVGID_60_" d="M456.5,677.8l0.1-40.8c0,4.4,1.9,8.8,5.8,12.8l-0.1,40.8C458.5,686.6,456.5,682.2,456.5,677.8z"/>
					</defs>
					<clipPath id="SVGID_61_">
						<use xlink:href="#SVGID_60_"  style="overflow:visible;"/>
					</clipPath>
					<g class="st59">
						<path class="st23" d="M462.5,649.8l-0.1,40.8c-3.9-3.9-5.8-8.3-5.8-12.8l0.1-40.8C456.6,641.4,458.6,645.8,462.5,649.8"/>
					</g>
				</g>
			</g>
		</g>
		<g class="st0">
			<g>
				<g>
					<defs>
						<path id="SVGID_62_" d="M921.3,735.9l-0.1,40.8c0,6.6-4.4,13.3-13.1,18.3l0.1-40.8C916.9,749.2,921.2,742.6,921.3,735.9z"/>
					</defs>
					<clipPath id="SVGID_63_">
						<use xlink:href="#SVGID_62_"  style="overflow:visible;"/>
					</clipPath>
					<g class="st60">
						<path class="st14" d="M921.3,735.9l-0.1,40.8c0,0.1,0,0.3,0,0.4l0.1-40.8C921.3,736.2,921.3,736.1,921.3,735.9"/>
						<path class="st15" d="M921.3,736.3l-0.1,40.8c0,0.9-0.1,1.7-0.3,2.6l0.1-40.8C921.1,738,921.2,737.2,921.3,736.3"/>
						<path class="st16" d="M921,738.9l-0.1,40.8c-0.2,0.8-0.4,1.7-0.7,2.5l0.1-40.8C920.6,740.6,920.8,739.7,921,738.9"/>
						<path class="st17" d="M920.2,741.4l-0.1,40.8c-0.3,0.9-0.7,1.7-1.2,2.6L919,744C919.5,743.1,919.9,742.3,920.2,741.4"/>
						<path class="st18" d="M919,744l-0.1,40.8c-0.5,0.9-1.1,1.8-1.8,2.7l0.1-40.8C917.9,745.8,918.5,744.9,919,744"/>
						<path class="st19" d="M917.2,746.7l-0.1,40.8c-0.8,1-1.7,2-2.8,3l0.1-40.8C915.5,748.7,916.4,747.7,917.2,746.7"/>
						<path class="st20" d="M914.4,749.7l-0.1,40.8c-1.6,1.5-3.5,2.9-5.7,4.3l0.1-40.8C910.9,752.6,912.8,751.2,914.4,749.7"/>
						<path class="st21" d="M908.7,754l-0.1,40.8c-0.2,0.1-0.4,0.2-0.6,0.3l0.1-40.8C908.3,754.2,908.5,754.1,908.7,754"/>
					</g>
				</g>
			</g>
		</g>
		<g>
			<polygon class="st24" points="908.1,754.3 908,795 807.4,853.5 807.5,812.7 			"/>
		</g>
		<g>
			<polygon class="st25" points="752.8,817.4 752.7,858.1 462.4,690.5 462.5,649.8 			"/>
		</g>
		<g class="st0">
			<g>
				<g>
					<defs>
						<path id="SVGID_64_" d="M807.5,812.7l-0.1,40.8c-15.4,8.9-37.7,10.4-54.8,4.6l0.1-40.8C769.8,823.1,792.2,821.7,807.5,812.7z"
							/>
					</defs>
					<clipPath id="SVGID_65_">
						<use xlink:href="#SVGID_64_"  style="overflow:visible;"/>
					</clipPath>
					<g class="st61">
						<path class="st21" d="M807.5,812.7l-0.1,40.8c-3.3,1.9-6.9,3.5-10.7,4.7l0.1-40.8C800.6,816.2,804.2,814.6,807.5,812.7"/>
						<path class="st20" d="M796.8,817.5l-0.1,40.8c-2.8,0.9-5.7,1.6-8.7,2.2l0.1-40.8C791.1,819.1,794,818.4,796.8,817.5"/>
						<path class="st19" d="M788.1,819.6l-0.1,40.8c-1.9,0.3-3.9,0.6-5.8,0.8l0.1-40.8C784.3,820.2,786.2,820,788.1,819.6"/>
						<path class="st18" d="M782.3,820.4l-0.1,40.8c-1.6,0.2-3.3,0.3-4.9,0.3l0.1-40.8C779,820.7,780.7,820.6,782.3,820.4"/>
						<path class="st17" d="M777.4,820.8l-0.1,40.8c-1.5,0.1-3,0.1-4.5,0l0.1-40.8C774.4,820.8,775.9,820.8,777.4,820.8"/>
						<path class="st16" d="M772.9,820.8l-0.1,40.8c-1.4,0-2.9-0.1-4.3-0.2l0.1-40.8C770,820.7,771.4,820.7,772.9,820.8"/>
						<path class="st15" d="M768.6,820.5l-0.1,40.8c-1.4-0.1-2.8-0.3-4.2-0.5l0.1-40.8C765.7,820.3,767.2,820.4,768.6,820.5"/>
						<path class="st14" d="M764.3,820.1l-0.1,40.8c-1.5-0.2-2.9-0.5-4.3-0.7l0.1-40.8C761.5,819.6,762.9,819.9,764.3,820.1"/>
						<path class="st27" d="M760,819.3l-0.1,40.8c-1.5-0.3-3.1-0.7-4.5-1.1l0.1-40.8C757,818.6,758.5,819,760,819.3"/>
						<path class="st28" d="M755.5,818.2l-0.1,40.8c-0.9-0.3-1.8-0.5-2.7-0.9l0.1-40.8C753.7,817.7,754.6,817.9,755.5,818.2"/>
					</g>
				</g>
			</g>
		</g>
		<g>
			<path class="st29" d="M921.1,733.3l-0.6,0.9L921.1,733.3c-1-5.7-5.2-11.2-12.8-15.6l-274-158.2c-17.3-10-45.6-10-63.1,0.2
				l-101.3,58.9c-6.7,3.9-10.9,8.7-12.5,13.7l0.2,0.4l-0.2-0.4c-1.9,5.9-0.2,12.2,5.1,17.5l290.2,167.5c17.1,5.8,39.4,4.3,54.8-4.6
				l100.6-58.4C918,748.5,922.3,740.7,921.1,733.3z"/>
		</g>
	</g>
</g>
<g>
	<path class="st12" d="M407.8,618.2l54.8,31.6c-5.3-5.3-7-11.5-5.2-17.5l-5.2-7.8C437,627.3,419.9,625.1,407.8,618.2z"/>
</g>
<g>
	<polygon class="st3" points="407.8,618.2 407.7,658.9 462.4,690.6 462.5,649.8 	"/>
</g>
<g class="st0">
	<g>
		<g>
			<defs>
				<path id="SVGID_66_" d="M958,776.5l0.1-40.8c0-6.5,4.3-13.1,12.9-18.1l-0.1,40.8C962.3,763.5,958.1,770,958,776.5z"/>
			</defs>
			<clipPath id="SVGID_67_">
				<use xlink:href="#SVGID_66_"  style="overflow:visible;"/>
			</clipPath>
			<g class="st62">
				<path class="st34" d="M971,717.7l-0.1,40.8c-0.2,0.1-0.4,0.2-0.5,0.3l0.1-40.8C970.7,717.9,970.9,717.8,971,717.7"/>
				<path class="st33" d="M970.5,718l-0.1,40.8c-2.2,1.3-4,2.7-5.6,4.2l0.1-40.8C966.5,720.7,968.4,719.3,970.5,718"/>
				<path class="st2" d="M964.9,722.2l-0.1,40.8c-1,1-2,1.9-2.8,3l0.1-40.8C962.9,724.1,963.9,723.1,964.9,722.2"/>
				<path class="st5" d="M962.1,725.1l-0.1,40.8c-0.7,0.9-1.3,1.8-1.8,2.7l0.1-40.8C960.9,726.9,961.5,726,962.1,725.1"/>
				<path class="st6" d="M960.3,727.8l-0.1,40.8c-0.5,0.8-0.9,1.7-1.2,2.5l0.1-40.8C959.5,729.5,959.9,728.6,960.3,727.8"/>
				<path class="st7" d="M958.5,732.8l0,1.9l0.1,0.2l-0.1-0.2l-0.1,38.9c0.1-0.8,0.4-1.7,0.7-2.5l0.1-40.8
					C958.9,731.2,958.6,732,958.5,732.8z"/>
				<path class="st8" d="M958.4,732.8c-0.1,0.5-0.1,1-0.2,1.5l0.2,0.2L958.4,732.8z"/>
				<path class="st8" d="M958.2,734.3c0,0.4-0.1,0.7-0.1,1.1l-0.1,40.8c0-0.9,0.1-1.8,0.3-2.6l0.1-39.1L958.2,734.3z"/>
				<path class="st9" d="M958.2,735.4l-0.1,40.8c0,0.1,0,0.3,0,0.4l0.1-40.8C958.1,735.6,958.2,735.5,958.2,735.4"/>
			</g>
		</g>
	</g>
</g>
<path class="st12" d="M971,717.7c-5.6,3.3-12.3,5.4-19.5,6.6l6.7,9.9C958.8,728.2,963.1,722.3,971,717.7z"/>
<path class="st12" d="M1385.8,633.3l-0.9-0.5c8.3,4.8,12.7,11,13.3,17.2l5.1-10.5C1396.9,638.3,1390.9,636.2,1385.8,633.3z"/>
<g id="area5">
	<g class="st0">
		<g class="st0">
			<g>
				<g>
					<defs>
						<path id="SVGID_68_" d="M1398.3,651.4l-0.1,40.8c0,6.5-4.3,13.1-12.8,18.1l0.1-40.8C1394,664.5,1398.3,658,1398.3,651.4z"/>
					</defs>
					<clipPath id="SVGID_69_">
						<use xlink:href="#SVGID_68_"  style="overflow:visible;"/>
					</clipPath>
					<g class="st63">
						<path class="st14" d="M1398.3,651.4l-0.1,40.8c0,0.1,0,0.3,0,0.4l0.1-40.8C1398.3,651.7,1398.3,651.6,1398.3,651.4"/>
						<path class="st15" d="M1398.3,651.8l-0.1,40.8c0,0.9-0.1,1.7-0.3,2.6l0.1-40.8C1398.1,653.5,1398.2,652.7,1398.3,651.8"/>
						<path class="st16" d="M1398,654.4l-0.1,40.8c-0.2,0.8-0.4,1.7-0.7,2.5l0.1-40.8C1397.6,656.1,1397.8,655.2,1398,654.4"/>
						<path class="st17" d="M1397.3,656.9l-0.1,40.8c-0.3,0.9-0.7,1.7-1.2,2.6l0.1-40.8C1396.5,658.6,1396.9,657.8,1397.3,656.9"/>
						<path class="st18" d="M1396.1,659.5l-0.1,40.8c-0.5,0.9-1.1,1.8-1.8,2.7l0.1-40.8C1394.9,661.3,1395.5,660.4,1396.1,659.5"/>
						<path class="st19" d="M1394.3,662.1l-0.1,40.8c-0.8,1-1.7,2-2.8,3l0.1-40.8C1392.5,664.2,1393.4,663.2,1394.3,662.1"/>
						<path class="st20" d="M1391.5,665.1l-0.1,40.8c-1.6,1.5-3.5,2.9-5.6,4.2l0.1-40.8C1388,668,1389.9,666.6,1391.5,665.1"/>
						<path class="st21" d="M1385.8,669.3l-0.1,40.8c-0.1,0.1-0.2,0.1-0.3,0.2l0.1-40.8C1385.6,669.4,1385.7,669.4,1385.8,669.3"/>
					</g>
				</g>
			</g>
		</g>
		<g class="st0">
			<g>
				<g>
					<defs>
						<path id="SVGID_70_" d="M958.1,776.5l0.1-40.8c0,6.6,4.4,13.3,13.2,18.4l-0.1,40.8C962.5,789.8,958.1,783.1,958.1,776.5z"/>
					</defs>
					<clipPath id="SVGID_71_">
						<use xlink:href="#SVGID_70_"  style="overflow:visible;"/>
					</clipPath>
					<g class="st64">
						<path class="st23" d="M971.5,754.1l-0.1,40.8c-8.8-5.1-13.2-11.8-13.2-18.4l0.1-40.8C958.2,742.3,962.6,749,971.5,754.1"/>
					</g>
				</g>
			</g>
		</g>
		<g>
			<polygon class="st25" points="1074.3,813.5 1074.2,854.2 971.4,794.9 971.5,754.1 			"/>
		</g>
		<g>
			<polygon class="st24" points="1385.5,669.5 1385.4,710.3 1137.3,854.4 1137.4,813.7 			"/>
		</g>
		<g class="st0">
			<g>
				<g>
					<defs>
						<path id="SVGID_72_" d="M1137.4,813.7l-0.1,40.8c-17.3,10-45.6,10-63.2-0.2l0.1-40.8C1091.9,823.6,1120.2,823.7,1137.4,813.7z
							"/>
					</defs>
					<clipPath id="SVGID_73_">
						<use xlink:href="#SVGID_72_"  style="overflow:visible;"/>
					</clipPath>
					<g class="st65">
						<path class="st21" d="M1137.4,813.7l-0.1,40.8c-2.9,1.7-6.2,3.1-9.6,4.2l0.1-40.8C1131.3,816.8,1134.5,815.4,1137.4,813.7"/>
						<path class="st20" d="M1127.8,817.9l-0.1,40.8c-2.7,0.9-5.5,1.6-8.4,2.1l0.1-40.8C1122.3,819.5,1125.1,818.8,1127.8,817.9"/>
						<path class="st19" d="M1119.4,820l-0.1,40.8c-1.9,0.3-3.7,0.6-5.6,0.8l0.1-40.8C1115.7,820.6,1117.6,820.3,1119.4,820"/>
						<path class="st18" d="M1113.8,820.8l-0.1,40.8c-1.6,0.2-3.3,0.3-4.9,0.3l0.1-40.8C1110.5,821,1112.2,820.9,1113.8,820.8"/>
						<path class="st17" d="M1108.9,821.1l-0.1,40.8c-1.5,0.1-3,0.1-4.6,0l0.1-40.8C1105.8,821.2,1107.3,821.2,1108.9,821.1"/>
						<path class="st16" d="M1104.3,821.1l-0.1,40.8c-1.5,0-2.9-0.1-4.4-0.2l0.1-40.8C1101.3,821,1102.8,821.1,1104.3,821.1"/>
						<path class="st15" d="M1099.9,820.9l-0.1,40.8c-1.5-0.1-2.9-0.3-4.4-0.5l0.1-40.8C1096.9,820.6,1098.4,820.8,1099.9,820.9"/>
						<path class="st14" d="M1095.5,820.4l-0.1,40.8c-1.5-0.2-3-0.5-4.5-0.8l0.1-40.8C1092.5,819.9,1094,820.2,1095.5,820.4"/>
						<path class="st27" d="M1091,819.6l-0.1,40.8c-1.6-0.3-3.2-0.7-4.7-1.2l0.1-40.8C1087.9,818.9,1089.4,819.3,1091,819.6"/>
						<path class="st28" d="M1086.3,818.5l-0.1,40.8c-1.9-0.5-3.7-1.2-5.5-1.9l0.1-40.8C1082.6,817.3,1084.4,817.9,1086.3,818.5"/>
						<path class="st23" d="M1080.8,816.6l-0.1,40.8c-2.3-0.9-4.5-2-6.5-3.1l0.1-40.8C1076.3,814.7,1078.5,815.7,1080.8,816.6"/>
					</g>
				</g>
			</g>
		</g>
		<g>
			<path class="st29" d="M1398.2,650.2L1398.2,650.2c-0.5-6.4-4.9-12.6-13.3-17.4l-102.8-59.3c-17.4-10-45.5-10-62.8,0L971.1,717.7
				c-7.9,4.6-12.2,10.6-12.8,16.6l0.4,0.5l-0.4-0.5c-0.7,7.1,3.7,14.4,13.1,19.9l102.8,59.3c17.6,10.2,45.9,10.2,63.2,0.2
				l248.1-144.2C1394.6,664.1,1398.8,657.1,1398.2,650.2L1398.2,650.2z"/>
		</g>
	</g>
</g>
<g>
	<g>
		<path class="st12" d="M1385.5,669.4l56.1-32.6c-11.4,4.3-25.6,5.2-38.3,2.8l-5.1,10.5C1398.9,657,1394.6,664.1,1385.5,669.4z"/>
	</g>
	<g>
		<polygon class="st1" points="1385.5,669.4 1385.4,710.2 1441.5,677.6 1441.6,636.8 		"/>
	</g>
	<g class="st0">
		<g>
			<g>
				<defs>
					<path id="SVGID_74_" d="M971.2,754.1l-0.1,40.8c-17.3-10-45.5-10-62.8,0l0.1-40.8C925.7,744,953.9,744.1,971.2,754.1z"/>
				</defs>
				<clipPath id="SVGID_75_">
					<use xlink:href="#SVGID_74_"  style="overflow:visible;"/>
				</clipPath>
				<g class="st66">
					<path class="st11" d="M971.2,754.1l-0.1,40.8c-2-1.1-4.1-2.2-6.4-3l0.1-40.8C967.1,751.9,969.3,752.9,971.2,754.1"/>
					<path class="st31" d="M964.9,751l-0.1,40.8c-1.7-0.7-3.5-1.3-5.4-1.8l0.1-40.8C961.4,749.7,963.2,750.3,964.9,751"/>
					<path class="st32" d="M959.5,749.2l-0.1,40.8c-1.5-0.4-3.1-0.8-4.6-1.1l0.1-40.8C956.4,748.4,958,748.8,959.5,749.2"/>
					<path class="st9" d="M954.9,748.1l-0.1,40.8c-1.5-0.3-2.9-0.6-4.4-0.8l0.1-40.8C951.9,747.5,953.4,747.8,954.9,748.1"/>
					<path class="st8" d="M950.5,747.3l-0.1,40.8c-1.4-0.2-2.9-0.4-4.3-0.5l0.1-40.8C947.6,746.9,949,747.1,950.5,747.3"/>
					<path class="st7" d="M946.1,746.8l-0.1,40.8c-1.5-0.1-2.9-0.2-4.4-0.2l0.1-40.8C943.2,746.6,944.7,746.7,946.1,746.8"/>
					<path class="st6" d="M941.7,746.6l-0.1,40.8c-1.5,0-3,0-4.6,0l0.1-40.8C938.7,746.6,940.2,746.6,941.7,746.6"/>
					<path class="st5" d="M937.2,746.6l-0.1,40.8c-1.7,0.1-3.3,0.2-4.9,0.3l0.1-40.8C933.8,746.8,935.5,746.7,937.2,746.6"/>
					<path class="st2" d="M932.2,746.9l-0.1,40.8c-1.9,0.2-3.8,0.5-5.7,0.8l0.1-40.8C928.4,747.4,930.3,747.1,932.2,746.9"/>
					<path class="st33" d="M926.5,747.7l-0.1,40.8c-2.9,0.5-5.7,1.2-8.4,2.1l0.1-40.8C920.8,749,923.6,748.3,926.5,747.7"/>
					<path class="st34" d="M918.1,749.8l-0.1,40.8c-3.5,1.1-6.7,2.5-9.7,4.3l0.1-40.8C911.4,752.4,914.7,751,918.1,749.8"/>
				</g>
			</g>
		</g>
	</g>
	<g>
		<polygon class="st1" points="908.5,754.1 908.3,794.8 908,795 908.1,754.3 		"/>
	</g>
	<g>
		<path class="st12" d="M908.1,754.3c0.2-0.1,0.4-0.2,0.6-0.3c-0.1,0-0.2,0.1-0.3,0.1L908.1,754.3z"/>
		<path class="st12" d="M958.2,734.2l-6.7-9.9c-7.8,1.2-16.2,1.2-24-0.1l-6.5,9.1c1.3,7.3-2.8,14.9-12.3,20.6
			c17.3-9.9,45.3-9.8,62.5,0.1C961.8,748.6,957.4,741.3,958.2,734.2z"/>
	</g>
</g>
<g class="st0">
	<g>
		<g>
			<defs>
				<path id="SVGID_76_" d="M794.6,871.5l0.1-40.8c0-6.5,4.3-13.1,12.8-18l-0.1,40.8C798.9,858.5,794.6,865,794.6,871.5z"/>
			</defs>
			<clipPath id="SVGID_77_">
				<use xlink:href="#SVGID_76_"  style="overflow:visible;"/>
			</clipPath>
			<g class="st67">
				<path class="st34" d="M807.5,812.7l-0.1,40.8c-0.2,0.1-0.4,0.2-0.5,0.3L807,813C807.2,812.9,807.3,812.8,807.5,812.7"/>
				<path class="st33" d="M807,813l-0.1,40.8c-2.1,1.3-4,2.7-5.6,4.1l0.1-40.8C803,815.7,804.9,814.3,807,813"/>
				<path class="st2" d="M801.4,817.2l-0.1,40.8c-1,1-1.9,1.9-2.7,3l0.1-40.8C799.5,819.1,800.4,818.1,801.4,817.2"/>
				<path class="st5" d="M798.7,820.1l-0.1,40.8c-0.7,0.9-1.3,1.7-1.8,2.6l0.1-40.8C797.4,821.9,798,821,798.7,820.1"/>
				<path class="st6" d="M796.9,822.8l-0.1,40.8c-0.5,0.8-0.9,1.7-1.2,2.5l0.1-40.8C796,824.5,796.4,823.6,796.9,822.8"/>
				<path class="st7" d="M795.7,825.3l-0.1,40.8c-0.3,0.8-0.5,1.7-0.7,2.5l0.1-40.8C795.1,827,795.4,826.1,795.7,825.3"/>
				<path class="st8" d="M795,827.8l-0.1,40.8c-0.2,0.8-0.3,1.7-0.3,2.6l0.1-40.8C794.7,829.5,794.8,828.7,795,827.8"/>
				<path class="st9" d="M794.7,830.4l-0.1,40.8c0,0.1,0,0.3,0,0.4l0.1-40.8C794.7,830.6,794.7,830.5,794.7,830.4"/>
			</g>
		</g>
	</g>
</g>
<g class="st0">
	<g>
		<g>
			<defs>
				<path id="SVGID_78_" d="M1087.4,832.1l-0.1,40.8c0-6.7-4.4-13.5-13.3-18.6l0.1-40.8C1083,818.6,1087.5,825.4,1087.4,832.1z"/>
			</defs>
			<clipPath id="SVGID_79_">
				<use xlink:href="#SVGID_78_"  style="overflow:visible;"/>
			</clipPath>
			<g class="st68">
				<path class="st11" d="M1087.4,832.1l-0.1,40.8c0-6.7-4.4-13.5-13.3-18.6l0.1-40.8C1083,818.6,1087.5,825.4,1087.4,832.1"/>
			</g>
		</g>
	</g>
</g>
<g>
	<g class="st0">
		<g class="st0">
			<g>
				<g>
					<defs>
						<path id="SVGID_80_" d="M794.6,871.5l0.1-40.8c0,6.7,4.4,13.3,13.2,18.4l-0.1,40.8C799,884.8,794.5,878.1,794.6,871.5z"/>
					</defs>
					<clipPath id="SVGID_81_">
						<use xlink:href="#SVGID_80_"  style="overflow:visible;"/>
					</clipPath>
					<g class="st69">
						<path class="st11" d="M807.9,849.1l-0.1,40.8c-8.8-5.1-13.2-11.8-13.2-18.4l0.1-40.8C794.7,837.4,799.1,844.1,807.9,849.1"/>
					</g>
				</g>
			</g>
		</g>
		<g class="st0">
			<g>
				<g>
					<defs>
						<path id="SVGID_82_" d="M1087.5,832l-0.1,40.8c0,6.5-4.3,13-12.8,18l0.1-40.8C1083.2,845.1,1087.4,838.6,1087.5,832z"/>
					</defs>
					<clipPath id="SVGID_83_">
						<use xlink:href="#SVGID_82_"  style="overflow:visible;"/>
					</clipPath>
					<g class="st70">
						<path class="st9" d="M1087.5,832l-0.1,40.8c0,0.1,0,0.3,0,0.4l0.1-40.8C1087.5,832.3,1087.5,832.2,1087.5,832"/>
						<path class="st8" d="M1087.5,832.4l-0.1,40.8c0,0.9-0.1,1.7-0.3,2.6l0.1-40.8C1087.3,834.1,1087.4,833.3,1087.5,832.4"/>
						<path class="st7" d="M1087.2,835l-0.1,40.8c-0.2,0.8-0.4,1.7-0.7,2.5l0.1-40.8C1086.8,836.7,1087,835.8,1087.2,835"/>
						<path class="st6" d="M1086.4,837.5l-0.1,40.8c-0.3,0.8-0.7,1.7-1.2,2.5l0.1-40.8C1085.7,839.2,1086.1,838.3,1086.4,837.5"/>
						<path class="st5" d="M1085.3,840l-0.1,40.8c-0.5,0.9-1.1,1.8-1.8,2.6l0.1-40.8C1084.2,841.8,1084.8,840.9,1085.3,840"/>
						<path class="st2" d="M1083.5,842.6l-0.1,40.8c-0.8,1-1.7,2-2.7,2.9l0.1-40.8C1081.8,844.6,1082.7,843.6,1083.5,842.6"/>
						<path class="st33" d="M1080.8,845.6l-0.1,40.8c-1.6,1.5-3.4,2.8-5.6,4.1l0.1-40.8C1077.3,848.4,1079.2,847,1080.8,845.6"/>
						<path class="st34" d="M1075.2,849.7l-0.1,40.8c-0.2,0.1-0.4,0.2-0.5,0.3l0.1-40.8C1074.9,849.9,1075,849.8,1075.2,849.7"/>
					</g>
				</g>
			</g>
		</g>
		<g>
			<polygon class="st1" points="1074.7,850 1074.6,890.8 974.5,948.9 974.7,908.1 			"/>
		</g>
		<g>
			<polygon class="st3" points="910,908.1 909.9,948.9 807.8,889.9 807.9,849.1 			"/>
		</g>
		<g class="st0">
			<g>
				<g>
					<defs>
						<path id="SVGID_84_" d="M974.7,908.1l-0.1,40.8c-17.8,10.3-46.8,10.3-64.6,0l0.1-40.8C927.9,918.4,956.9,918.4,974.7,908.1z"
							/>
					</defs>
					<clipPath id="SVGID_85_">
						<use xlink:href="#SVGID_84_"  style="overflow:visible;"/>
					</clipPath>
					<g class="st71">
						<path class="st34" d="M974.7,908.1l-0.1,40.8c-3,1.8-6.4,3.2-10,4.4l0.1-40.8C968.3,911.4,971.6,909.9,974.7,908.1"/>
						<path class="st33" d="M964.7,912.5l-0.1,40.8c-2.8,0.9-5.7,1.6-8.7,2.2l0.1-40.8C959,914.1,961.9,913.4,964.7,912.5"/>
						<path class="st2" d="M956,914.7l-0.1,40.8c-1.9,0.3-3.9,0.6-5.8,0.8l0.1-40.8C952.2,915.3,954.1,915,956,914.7"/>
						<path class="st5" d="M950.2,915.5l-0.1,40.8c-1.7,0.2-3.4,0.3-5.1,0.3l0.1-40.8C946.8,915.8,948.5,915.7,950.2,915.5"/>
						<path class="st6" d="M945.1,915.8l-0.1,40.8c-1.6,0.1-3.1,0.1-4.7,0l0.1-40.8C942,915.9,943.5,915.9,945.1,915.8"/>
						<path class="st7" d="M940.4,915.8l-0.1,40.8c-1.5,0-3-0.1-4.5-0.2l0.1-40.8C937.4,915.7,938.9,915.8,940.4,915.8"/>
						<path class="st8" d="M935.9,915.6l-0.1,40.8c-1.5-0.1-3-0.3-4.5-0.5l0.1-40.8C932.9,915.3,934.4,915.5,935.9,915.6"/>
						<path class="st9" d="M931.4,915.1l-0.1,40.8c-1.5-0.2-3-0.5-4.5-0.8l0.1-40.8C928.4,914.6,929.9,914.9,931.4,915.1"/>
						<path class="st32" d="M926.9,914.3l-0.1,40.8c-1.6-0.3-3.2-0.7-4.8-1.2l0.1-40.8C923.7,913.6,925.3,914,926.9,914.3"/>
						<path class="st31" d="M922.1,913.1l-0.1,40.8c-1.9-0.5-3.8-1.2-5.5-1.9l0.1-40.8C918.4,912,920.2,912.6,922.1,913.1"/>
						<path class="st11" d="M916.6,911.3l-0.1,40.8c-2.3-0.9-4.5-2-6.6-3.1l0.1-40.8C912.1,909.3,914.3,910.4,916.6,911.3"/>
					</g>
				</g>
			</g>
		</g>
		<g>
			<path class="st12" d="M1074.1,813.4c17.6,10.2,17.8,26.5,0.6,36.6l-100,58.1c-17.8,10.3-46.8,10.3-64.6,0l-102.2-59
				c-17.4-10.1-17.6-26.4-0.3-36.5l100.6-58.4c17.6-10.2,45.8-10.2,63.3-0.1L1074.1,813.4z"/>
		</g>
	</g>
</g>
<g class="st0">
	<g>
		<polygon class="st1" points="1137.3,813.6 1137.2,854.4 1074.6,890.8 1074.7,850 		"/>
	</g>
	<g>
		<path class="st12" d="M1137.3,813.6l-62.7,36.4c17.3-10,17-26.5-0.6-36.6C1091.7,823.6,1120,823.7,1137.3,813.6z"/>
	</g>
</g>
<g class="st0">
	<g>
		<polygon class="st3" points="807.9,849.2 807.8,889.9 752.6,858.1 752.8,817.4 		"/>
	</g>
	<g>
		<path class="st12" d="M807.5,812.7c-17.3,10-17.1,26.4,0.3,36.4l-55.1-31.8c17.1,5.7,39.4,4.3,54.1-4.2L807.5,812.7z"/>
	</g>
</g>
<g>
	<polygon class="st3" points="752.8,817.4 752.7,858.1 462.4,690.5 462.5,649.8 	"/>
</g>
<g>
	<polygon class="st3" points="407.7,618.1 407.6,658.9 267.5,578 267.6,537.3 	"/>
</g>
<g class="st0">
	<path class="st3" d="M267.6,537.2l-0.1,40.8c-9-5.2-13.5-12-13.5-18.8l0.1-40.8C254.1,525.1,258.6,531.9,267.6,537.2"/>
</g>
<g>
	<polygon class="st1" points="1385.5,669.5 1385.4,710.3 1137.3,854.4 1137.4,813.7 	"/>
</g>
<g>
	<polygon class="st1" points="1614.8,536.5 1614.7,577.3 1441.5,677.6 1441.6,636.8 	"/>
</g>
<path class="st34" d="M1615.5,536.1l-0.1,40.8c-0.2,0.1-0.4,0.3-0.7,0.4l0.1-40.8C1615.1,536.3,1615.3,536.2,1615.5,536.1"/>
<path class="st34" d="M1621.2,531.8l-0.1,40.8c-1.6,1.5-3.6,2.9-5.8,4.3l0.1-40.8C1617.6,534.7,1619.5,533.3,1621.2,531.8"/>
<path class="st33" d="M1624,528.8l-0.1,40.8c-0.8,1-1.8,2.1-2.8,3l0.1-40.8C1622.2,530.8,1623.2,529.8,1624,528.8"/>
<path class="st5" d="M1627,523.5l-0.1,40.8c-0.3,0.9-0.7,1.7-1.2,2.6l0.1-40.8C1626.3,525.2,1626.7,524.3,1627,523.5"/>
<path class="st2" d="M1625.8,526.2l-0.1,40.8c-0.5,0.9-1.1,1.8-1.8,2.7l0.1-40.8C1624.7,528,1625.3,527.1,1625.8,526.2"/>
<path class="st6" d="M1627.8,520.9l-0.1,40.8c-0.2,0.9-0.4,1.7-0.7,2.6l0.1-40.8C1627.4,522.6,1627.6,521.7,1627.8,520.9"/>
<path class="st36" d="M1145.4,1088.3"/>
<path class="st72" d="M1005.3,1007.4"/>
<path class="st72" d="M1145.4,1088.3"/>
<path class="st36" d="M1145.5,1047.5l-140.1-80.9c-17.9-10.4-18-27.1-0.2-37.4L1426,684.7"/>
<path class="st72" d="M1145.5,1047.5"/>
<path class="st36" d="M1145.5,1047.5"/>
<line class="st36" x1="1005.3" y1="1007.4" x2="1005.4" y2="966.6"/>
<path class="st36" d="M1145.4,1088.3"/>

<style>
	#area1 path, #area1 polygon, #area2 path, #area2 polygon, #area3 path, #area3 polygon, #area4 path, #area4 polygon, #area5 path, #area5 polygon {
		cursor: pointer;
		transition-property:fill, transform, filter;
		transition-duration: 2s;
	}

	:hover#area1 path, :hover#area1 polygon, :hover#area2 path, :hover#area2 polygon, :hover#area3 path, :hover#area3 polygon, :hover#area4 path, :hover#area4 polygon, :hover#area5 path, :hover#area5 polygon {
		fill: #D4EDDA;
		transform: translate(0px, -50px);
		z-index: 1000;
	}

	:active#area1 path, :active#area1 polygon, :active#area2 path, :active#area2 polygon, :active#area3 path, :active#area3 polygon, :active#area4 path, :active#area4 polygon, :active#area5 path, :active#area5 polygon {
		fill: #85E39B;
		transform: translate(0px, -40px);
		transition-duration: 1s;
	}
</style>
</svg>