<?xml version="1.0" encoding="utf-8"?>
<!-- Generator: Adobe Illustrator 23.0.2, SVG Export Plug-In . SVG Version: 6.00 Build 0)  -->
<svg version="1.1" id="Layer_1" xmlns="http://www.w3.org/2000/svg" xmlns:xlink="http://www.w3.org/1999/xlink" x="0px" y="0px"
	 viewBox="0 0 1920 1080" style="enable-background:new 0 0 1920 1080;" xml:space="preserve">
<style type="text/css">
	.st0{fill:#8CC8FF;}
	.st1{opacity:0.5;fill:#8CC8FF;stroke:#000000;stroke-miterlimit:10;}
</style>
<g>
	<path class="st0" d="M1394.4,806h-144.8c-24.6,0-44.6,19.9-44.6,44.4v143.1c0,24.5,20,44.4,44.6,44.4l0,0h144.8
		c6.9,0,13.5-1.6,19.4-4.3c15.2-7.5,25.6-23,25.6-40.8V850.4C1439.3,825.9,1419.2,806,1394.4,806z"/>
	<path class="st0" d="M730,409.4v352.1c0,24.5,19.7,44.4,44,44.4v0h386.6c24.5,0,44.4-19.9,44.4-44.4V409.4l0,0
		c0-24.5-19.9-44.4-44.4-44.4H774.4C749.9,365,730,384.9,730,409.4z"/>
	<path class="st0" d="M484,1038h201.6c24.5,0,44.4-19.9,44.4-44.4V409.4c0-24.5-19.9-44.4-44.4-44.4H484.4
		c-24.5,0-44.4,19.9-44.4,44.4v583.4c0,16.5,8.7,31,21.7,39C468.3,1035.8,475.9,1038,484,1038L484,1038z"/>
	<path class="st0" d="M730,850.9v143.7c0,24.8,19.7,44.9,44,44.9v0h386.6c24.5,0,44.4-20.1,44.4-44.9V850.9
		c0-24.8-19.9-44.9-44.4-44.9H774.4C749.9,806,730,826.1,730,850.9z"/>
	<path class="st0" d="M1394.4,365h-145c-24.5,0-44.4,19.9-44.4,44.4l0,0v352.1l0,0v0c0,24.5,19.9,44.4,44.4,44.4l0,0h145
		c24.8,0,44.9-19.9,44.9-44.4V409.4C1439.3,384.9,1419.2,365,1394.4,365z"/>
	<path class="st0" d="M1393.5,39H774.6C750,39,730,59,730,83.6v236.9c0,24.6,19.8,44.6,44.1,44.6l0,0h621.6
		c21.4,0,39.2-15.1,43.6-35.1V84.8C1439.3,59.5,1418.8,39,1393.5,39z"/>
	<path class="st0" d="M484,365L484,365h201.6c24.5,0,44.4-20,44.4-44.6V83.6C730,59,710.1,39,685.6,39H485.6
		C460.4,39,440,59.5,440,84.8v235.6C440,345,459.7,365,484,365z"/>
</g>
<path class="st1" d="M1393.7,1038H488c-25.2,0-45.7-20.5-45.7-45.7V84.7c0-25.2,20.4-45.7,45.7-45.7h905.7
	c25.2,0,45.7,20.5,45.7,45.7v907.7C1439.3,1017.5,1418.9,1038,1393.7,1038z"/>
</svg>
